<?xml version="1.0" encoding="utf-8"?>
<!-- Generator: Adobe Illustrator 28.3.0, SVG Export Plug-In . SVG Version: 6.00 Build 0)  -->
<svg version="1.1" id="Layer_1" xmlns="http://www.w3.org/2000/svg" xmlns:xlink="http://www.w3.org/1999/xlink" x="0px" y="0px"
	 viewBox="0 0 1000 1000" style="enable-background:new 0 0 1000 1000;" xml:space="preserve">
<style type="text/css">
	.st0{display:none;fill:#FFDD00;}
	.st1{fill-rule:evenodd;clip-rule:evenodd;fill:#FFFFFF;}
	.st2{fill:#FFFFFF;stroke:#000000;stroke-width:10;stroke-miterlimit:10;}
	.st3{display:none;}
	.st4{fill:#231F20;}
</style>
<g id="Layer_2">
	<rect x="-385.46" y="-137.91" class="st0" width="1772.51" height="1275.83"/>
	<rect x="-2568.28" y="-137.91" class="st0" width="1772.51" height="1275.83"/>
	<g id="Layer_3">
	</g>
	<g>
		<g>
			<g>
				<path d="M218.29,764.88h-22.46l-3.97,12.59H171.6l25.83-72.23h19.59l25.83,72.23h-20.6L218.29,764.88z M212.8,747.34
					l-5.74-18.16l-5.74,18.16H212.8z"/>
				<path d="M296.46,749.2c0,18.16-10.22,29.3-22.29,29.3c-5.74,0-9.88-1.86-12.66-5.68v4.64h-18.15v-76.56h19.08v23.94
					c2.79-3.3,6.67-4.85,11.74-4.85C286.25,720,296.46,731.04,296.46,749.2z M277.13,749.2c0-7.33-3.29-11.04-7.51-11.04
					s-7.51,3.71-7.51,11.04c0,7.33,3.29,11.14,7.51,11.14S277.13,756.53,277.13,749.2z"/>
				<path d="M346.02,747.14v30.33h-17.73v-7.43c-2.19,5.67-6.58,8.46-13.09,8.46c-11.31,0-17.14-7.84-17.14-17.54
					c0-10.94,6.75-17.02,21.11-17.02h7.68c-0.59-4.33-3.29-6.6-8.7-6.6c-4.14,0-8.78,1.65-11.82,4.44l-6.08-15.37
					c5.4-4.13,13.59-6.4,20.77-6.4C336.9,720,346.02,728.36,346.02,747.14z M326.94,759.11v-3.92h-4.73c-4.05,0-5.83,1.65-5.83,4.75
					c0,2.58,1.69,4.54,4.56,4.54C323.56,764.47,325.93,762.82,326.94,759.11z"/>
				<path d="M402.83,721.03v76.46h-19.08v-23.83c-2.79,3.3-6.67,4.85-11.74,4.85c-12.07,0-22.29-11.04-22.29-29.2
					c0-18.16,10.22-29.3,22.29-29.3c5.74,0,9.88,1.86,12.66,5.68v-4.64H402.83z M384.09,749.3c0-7.33-3.29-11.14-7.51-11.14
					c-4.22,0-7.51,3.82-7.51,11.14c0,7.33,3.29,11.04,7.51,11.04C380.8,760.34,384.09,756.63,384.09,749.3z"/>
				<path d="M482.11,759.11v18.37h-49.14v-72.23h48.04v18.37h-28.45v8.46h24.99v17.54h-24.99v9.49H482.11z"/>
				<path d="M487.08,700.91h19.08v76.56h-19.08V700.91z"/>
				<path d="M558.17,747.14v30.33h-17.73v-7.43c-2.19,5.67-6.58,8.46-13.09,8.46c-11.31,0-17.14-7.84-17.14-17.54
					c0-10.94,6.75-17.02,21.11-17.02H539c-0.59-4.33-3.29-6.6-8.7-6.6c-4.14,0-8.78,1.65-11.82,4.44l-6.08-15.37
					c5.4-4.13,13.59-6.4,20.77-6.4C549.05,720,558.17,728.36,558.17,747.14z M539.09,759.11v-3.92h-4.73
					c-4.05,0-5.83,1.65-5.83,4.75c0,2.58,1.69,4.54,4.56,4.54C535.71,764.47,538.07,762.82,539.09,759.11z"/>
				<path d="M615.32,745.28v32.19h-19.08V749.3c0-7.02-2.2-9.7-5.66-9.7c-3.88,0-7.18,2.99-7.18,11.35v26.52h-19.08v-56.44h18.15
					v5.57c3.63-4.44,8.53-6.6,13.93-6.6C607.05,720,615.32,727.53,615.32,745.28z"/>
				<path d="M667.15,747.14v30.33h-17.73v-7.43c-2.19,5.67-6.58,8.46-13.09,8.46c-11.31,0-17.14-7.84-17.14-17.54
					c0-10.94,6.75-17.02,21.11-17.02h7.68c-0.59-4.33-3.29-6.6-8.7-6.6c-4.14,0-8.78,1.65-11.82,4.44l-6.08-15.37
					c5.4-4.13,13.59-6.4,20.77-6.4C658.04,720,667.15,728.36,667.15,747.14z M648.07,759.11v-3.92h-4.73
					c-4.05,0-5.83,1.65-5.83,4.75c0,2.58,1.69,4.54,4.56,4.54C644.7,764.47,647.06,762.82,648.07,759.11z"/>
				<path d="M724.73,721.03l-19,57.57c-5.07,15.48-12.5,19.91-22.29,19.91c-5.07,0-10.89-1.96-14.01-5.06l6.33-15.99
					c1.86,1.75,4.47,2.99,6.75,2.99c2.28,0,3.71-0.83,4.73-2.27l-19.42-57.16h19.59l9.54,30.23l9.71-30.23H724.73z"/>
				<path d="M771.25,747.14v30.33h-17.73v-7.43c-2.19,5.67-6.58,8.46-13.09,8.46c-11.31,0-17.14-7.84-17.14-17.54
					c0-10.94,6.75-17.02,21.11-17.02h7.68c-0.59-4.33-3.29-6.6-8.7-6.6c-4.14,0-8.78,1.65-11.82,4.44l-6.08-15.37
					c5.4-4.13,13.59-6.4,20.77-6.4C762.13,720,771.25,728.36,771.25,747.14z M752.17,759.11v-3.92h-4.73
					c-4.05,0-5.83,1.65-5.83,4.75c0,2.58,1.69,4.54,4.56,4.54C748.79,764.47,751.15,762.82,752.17,759.11z"/>
				<path d="M828.4,745.28v32.19h-19.08V749.3c0-7.02-2.2-9.7-5.66-9.7c-3.88,0-7.18,2.99-7.18,11.35v26.52h-19.08v-76.56h19.08
					v24.66c3.55-3.71,8.02-5.57,13-5.57C820.13,720,828.4,727.53,828.4,745.28z"/>
			</g>
		</g>
		<g>
			<path d="M100.51,851.75v16.07h-9.54v-16.2l-15.96-29.16h10.13l11.01,20.15l11.01-20.15h9.36L100.51,851.75z"/>
			<path d="M116.06,850.39c0-10.5,7.36-17.95,17.43-17.95s17.38,7.45,17.38,17.95c0,10.5-7.3,17.95-17.38,17.95
				S116.06,860.88,116.06,850.39z M141.56,850.39c0-6.03-3.48-9.65-8.07-9.65s-8.13,3.63-8.13,9.65s3.53,9.65,8.13,9.65
				S141.56,856.42,141.56,850.39z"/>
			<path d="M187.44,832.96v34.86h-8.72v-4.15c-2.41,3.04-5.95,4.67-9.84,4.67c-7.95,0-13.55-4.92-13.55-15.68v-19.7h9.19v18.21
				c0,5.83,2.36,8.42,6.42,8.42c4.24,0,7.3-2.98,7.3-9.39v-17.23H187.44z"/>
			<path d="M214.18,832.44v9.33c-0.77-0.07-1.35-0.13-2.06-0.13c-5.07,0-8.42,3.04-8.42,9.72v16.46h-9.19v-34.86h8.78v4.6
				C205.52,834.19,209.29,832.44,214.18,832.44z"/>
			<path d="M268.13,850.39c0,10.95-6.89,17.95-15.78,17.95c-4.24,0-7.66-1.49-9.95-4.54v4.02h-8.78v-48.07h9.19v16.91
				c2.36-2.85,5.6-4.21,9.54-4.21C261.24,832.44,268.13,839.44,268.13,850.39z M258.82,850.39c0-6.03-3.47-9.65-8.07-9.65
				s-8.07,3.63-8.07,9.65s3.48,9.65,8.07,9.65S258.82,856.42,258.82,850.39z"/>
			<path d="M303.64,853.24h-23.97c0.88,4.34,4.24,7,9.07,7c3.36,0,5.77-1.1,7.95-3.37l4.89,5.83c-2.95,3.69-7.36,5.64-13.08,5.64
				c-10.96,0-18.08-7.58-18.08-17.95c0-10.43,7.24-17.95,16.9-17.95c9.31,0,16.49,6.87,16.49,18.08
				C303.82,851.3,303.7,852.4,303.64,853.24z M279.55,847.34h15.61c-0.65-4.41-3.65-7.26-7.77-7.26
				C283.21,840.09,280.2,842.87,279.55,847.34z"/>
			<path d="M336.51,847.93v19.89h-8.6v-4.34c-1.71,3.17-5.01,4.86-9.66,4.86c-7.42,0-11.84-4.54-11.84-10.56
				c0-6.16,3.95-10.43,13.61-10.43h7.3c0-4.34-2.36-6.87-7.3-6.87c-3.36,0-6.83,1.23-9.13,3.24l-3.3-7.06
				c3.48-2.72,8.6-4.21,13.66-4.21C330.91,832.44,336.51,837.37,336.51,847.93z M327.32,856.8v-3.56h-6.3
				c-4.3,0-5.65,1.75-5.65,4.08c0,2.53,1.94,4.21,5.18,4.21C323.61,861.53,326.26,859.98,327.32,856.8z"/>
			<path d="M375.26,832.96v34.86h-8.72v-4.15c-2.41,3.04-5.95,4.67-9.84,4.67c-7.95,0-13.55-4.92-13.55-15.68v-19.7h9.19v18.21
				c0,5.83,2.36,8.42,6.42,8.42c4.24,0,7.3-2.98,7.3-9.39v-17.23H375.26z"/>
			<path d="M402.76,866.13c-1.88,1.49-4.65,2.2-7.48,2.2c-7.48,0-11.84-4.21-11.84-12.5v-14.32h-4.89v-7.77h4.89v-8.49h9.19v8.49
				h7.89v7.77h-7.89v14.19c0,2.98,1.47,4.6,3.95,4.6c1.35,0,2.71-0.45,3.71-1.3L402.76,866.13z"/>
			<path d="M437.93,832.96l-14.31,36.99c-3.06,8.42-7.42,10.95-13.13,10.95c-3.24,0-6.77-1.17-8.83-3.17l3.36-7.19
				c1.41,1.36,3.36,2.2,5.18,2.2c2.53,0,3.95-1.23,5.18-4.34l0.12-0.32l-13.72-35.12h9.48l8.89,23.65l8.95-23.65H437.93z"/>
			<path d="M452.35,864.58l3.06-7.26c2.83,2.01,7.13,3.37,11.01,3.37c4.24,0,5.83-1.23,5.83-3.17c0-5.7-19.14,0.13-19.14-13.8
				c0-6.61,5.42-11.27,14.67-11.27c4.36,0,9.19,1.1,12.19,3.04l-3.06,7.19c-3.12-1.94-6.24-2.59-9.13-2.59
				c-4.12,0-5.89,1.42-5.89,3.24c0,5.96,19.14,0.19,19.14,13.93c0,6.48-5.48,11.08-14.96,11.08
				C460.72,868.34,455.3,866.72,452.35,864.58z"/>
			<path d="M505.65,866.13c-1.88,1.49-4.65,2.2-7.48,2.2c-7.48,0-11.84-4.21-11.84-12.5v-14.32h-4.89v-7.77h4.89v-8.49h9.19v8.49
				h7.89v7.77h-7.89v14.19c0,2.98,1.47,4.6,3.95,4.6c1.35,0,2.71-0.45,3.71-1.3L505.65,866.13z"/>
			<path d="M537.4,847.93v19.89h-8.6v-4.34c-1.71,3.17-5.01,4.86-9.66,4.86c-7.42,0-11.84-4.54-11.84-10.56
				c0-6.16,3.95-10.43,13.61-10.43h7.3c0-4.34-2.36-6.87-7.3-6.87c-3.36,0-6.83,1.23-9.13,3.24l-3.3-7.06
				c3.48-2.72,8.6-4.21,13.66-4.21C531.8,832.44,537.4,837.37,537.4,847.93z M528.21,856.8v-3.56h-6.3c-4.3,0-5.65,1.75-5.65,4.08
				c0,2.53,1.94,4.21,5.18,4.21C524.5,861.53,527.15,859.98,528.21,856.8z"/>
			<path d="M563.9,832.44v9.33c-0.77-0.07-1.35-0.13-2.06-0.13c-5.07,0-8.42,3.04-8.42,9.72v16.46h-9.19v-34.86h8.78v4.6
				C555.24,834.19,559.01,832.44,563.9,832.44z"/>
			<path d="M588.58,866.13c-1.88,1.49-4.65,2.2-7.48,2.2c-7.48,0-11.84-4.21-11.84-12.5v-14.32h-4.89v-7.77h4.89v-8.49h9.19v8.49
				h7.89v7.77h-7.89v14.19c0,2.98,1.47,4.6,3.95,4.6c1.35,0,2.71-0.45,3.71-1.3L588.58,866.13z"/>
			<path d="M589.23,864.58l3.06-7.26c2.83,2.01,7.13,3.37,11.01,3.37c4.24,0,5.83-1.23,5.83-3.17c0-5.7-19.14,0.13-19.14-13.8
				c0-6.61,5.42-11.27,14.67-11.27c4.36,0,9.19,1.1,12.19,3.04l-3.06,7.19c-3.12-1.94-6.24-2.59-9.13-2.59
				c-4.12,0-5.89,1.42-5.89,3.24c0,5.96,19.14,0.19,19.14,13.93c0,6.48-5.48,11.08-14.96,11.08
				C597.59,868.34,592.17,866.72,589.23,864.58z"/>
			<path d="M647.36,833.74h8.13v7.77h-7.89v26.3h-9.19v-26.3h-4.89v-7.77h4.89v-1.55c0-7.84,4.36-12.96,12.25-12.96
				c2.59,0,5.3,0.58,7.01,1.88l-2.41,7.32c-1-0.78-2.3-1.23-3.71-1.23c-2.71,0-4.18,1.62-4.18,5.05V833.74z"/>
			<path d="M678.28,832.44v9.33c-0.77-0.07-1.35-0.13-2.06-0.13c-5.07,0-8.42,3.04-8.42,9.72v16.46h-9.19v-34.86h8.78v4.6
				C669.62,834.19,673.39,832.44,678.28,832.44z"/>
			<path d="M680.16,850.39c0-10.5,7.36-17.95,17.43-17.95s17.38,7.45,17.38,17.95c0,10.5-7.3,17.95-17.38,17.95
				S680.16,860.88,680.16,850.39z M705.66,850.39c0-6.03-3.48-9.65-8.07-9.65s-8.13,3.63-8.13,9.65s3.53,9.65,8.13,9.65
				S705.66,856.42,705.66,850.39z"/>
			<path d="M773.16,847.86v19.96h-9.19v-18.4c0-5.64-2.3-8.23-6.01-8.23c-4.12,0-7.01,2.92-7.01,9.13v17.49h-9.19v-18.4
				c0-5.64-2.18-8.23-6.01-8.23c-4.06,0-6.95,2.92-6.95,9.13v17.49h-9.19v-34.86h8.78v4.02c2.36-2.98,5.89-4.54,9.95-4.54
				c4.42,0,8.19,1.88,10.42,5.7c2.53-3.56,6.66-5.7,11.43-5.7C767.74,832.44,773.16,837.24,773.16,847.86z"/>
			<path d="M827.52,847.86v19.96h-9.19v-18.4c0-5.64-2.36-8.23-6.42-8.23c-4.42,0-7.6,2.98-7.6,9.39v17.23h-9.19v-48.07h9.19v16.84
				c2.47-2.72,6.01-4.15,10.07-4.15C821.87,832.44,827.52,837.24,827.52,847.86z"/>
			<path d="M865.21,853.24h-23.97c0.88,4.34,4.24,7,9.07,7c3.36,0,5.77-1.1,7.95-3.37l4.89,5.83c-2.95,3.69-7.36,5.64-13.08,5.64
				c-10.96,0-18.08-7.58-18.08-17.95c0-10.43,7.24-17.95,16.9-17.95c9.31,0,16.49,6.87,16.49,18.08
				C865.39,851.3,865.27,852.4,865.21,853.24z M841.12,847.34h15.61c-0.65-4.41-3.65-7.26-7.77-7.26
				C844.77,840.09,841.77,842.87,841.12,847.34z"/>
			<path d="M889.71,832.44v9.33c-0.77-0.07-1.35-0.13-2.06-0.13c-5.07,0-8.42,3.04-8.42,9.72v16.46h-9.19v-34.86h8.78v4.6
				C881.05,834.19,884.82,832.44,889.71,832.44z"/>
			<path d="M924.81,853.24h-23.97c0.88,4.34,4.24,7,9.07,7c3.36,0,5.77-1.1,7.95-3.37l4.89,5.83c-2.95,3.69-7.36,5.64-13.08,5.64
				c-10.96,0-18.08-7.58-18.08-17.95c0-10.43,7.24-17.95,16.9-17.95c9.31,0,16.49,6.87,16.49,18.08
				C924.99,851.3,924.87,852.4,924.81,853.24z M900.73,847.34h15.61c-0.65-4.41-3.65-7.26-7.77-7.26
				C904.38,840.09,901.37,842.87,900.73,847.34z"/>
		</g>
		<g>
			<g>
				<path class="st1" d="M357.02,284.74c3.44-1,6.6-3.17,8.5-6.51l0,0c1.99-3.35,2.35-7.24,1.45-10.68c-1-3.44-3.26-6.6-6.6-8.5l0,0
					c-3.35-1.9-7.15-2.35-10.58-1.36c-3.44,0.9-6.6,3.08-8.5,6.42v0.09c-1.9,3.35-2.35,7.15-1.45,10.58
					C341.82,282.02,349.78,286.64,357.02,284.74L357.02,284.74z"/>
				<path class="st1" d="M557.94,430.84c-2.53-2.53-6.06-4.07-9.95-4.07l0,0c-3.89,0-7.33,1.54-9.86,4.07
					c-2.53,2.53-4.16,6.06-4.16,9.95l0,0c0,3.8,1.63,7.33,4.16,9.86c2.53,2.53,5.97,4.07,9.77,4.07h0.09c3.89,0,7.33-1.54,9.95-4.07
					C563.19,445.32,563.19,436.18,557.94,430.84L557.94,430.84z"/>
				<path class="st1" d="M461.23,148.95c-2.53-2.53-5.97-4.07-9.86-4.07l0,0c-3.89,0-7.33,1.54-9.95,4.07
					c-2.53,2.53-4.07,6.06-4.07,9.86l0,0c0,3.89,1.54,7.42,4.16,9.95c2.53,2.53,5.97,4.07,9.77,4.07h0.09
					c3.89,0,7.33-1.54,9.86-4.07C466.57,163.42,466.57,154.28,461.23,148.95L461.23,148.95z"/>
				<path class="st1" d="M415.28,415.74c1-3.44,0.54-7.24-1.36-10.58l0,0c-1.9-3.35-5.07-5.61-8.5-6.51
					c-3.44-1-7.33-0.54-10.68,1.36l0,0c-3.35,1.9-5.61,5.07-6.51,8.5c-0.9,3.44-0.54,7.24,1.36,10.58l0.09,0.09
					c1.9,3.35,4.98,5.52,8.5,6.51C405.42,427.59,413.38,423.06,415.28,415.74L415.28,415.74z"/>
				<path class="st1" d="M611.14,191.1c0.9-3.44,0.54-7.24-1.45-10.58l0,0c-1.9-3.35-4.98-5.61-8.5-6.51
					c-3.44-1-7.24-0.54-10.58,1.36l0,0c-3.35,1.9-5.61,5.07-6.51,8.5c-1,3.44-0.54,7.24,1.36,10.58v0.09
					c1.9,3.26,5.07,5.52,8.5,6.51C601.19,202.96,609.15,198.43,611.14,191.1L611.14,191.1z"/>
				<path class="st1" d="M649.5,342c3.44-1,6.51-3.17,8.5-6.51l0,0c1.9-3.35,2.26-7.24,1.36-10.68s-3.17-6.6-6.51-8.5l0,0
					c-3.35-1.9-7.15-2.35-10.58-1.36c-3.53,0.9-6.6,3.17-8.5,6.42l-0.09,0.09c-1.9,3.35-2.26,7.15-1.36,10.58
					C634.3,339.29,642.17,343.9,649.5,342L649.5,342z"/>
				<path class="st1" d="M538.67,235.79c-13.48,10.58-20.26,15.92-20.26,15.92c-20.26-55.91-20.99-95.35-1.99-118.24
					C563.1,165.14,570.52,199.25,538.67,235.79L538.67,235.79z"/>
				<path class="st1" d="M574.41,301.11c-16.01-6.42-23.97-9.59-23.97-9.59c38.27-45.6,72.1-65.86,101.41-60.88
					C647.78,286.91,622,310.43,574.41,301.11L574.41,301.11z"/>
				<path class="st1" d="M535.69,364.62c-2.44-17.01-3.71-25.51-3.71-25.51c58.62,10.4,93.09,29.49,103.4,57.36
					C584.63,421.07,551.43,410.49,535.69,364.62L535.69,364.62z"/>
				<path class="st1" d="M461.33,362.9c13.48-10.58,20.26-15.92,20.26-15.92c20.26,55.91,20.99,95.35,1.99,118.15
					C436.9,433.56,429.39,399.45,461.33,362.9L461.33,362.9z"/>
				<path class="st1" d="M425.59,297.58c15.92,6.42,23.97,9.59,23.97,9.59c-38.27,45.6-72.1,65.86-101.41,60.88
					C352.22,311.79,378,288.27,425.59,297.58L425.59,297.58z"/>
				<path class="st1" d="M464.31,234.08c2.44,17.01,3.62,25.51,3.62,25.51c-58.53-10.4-93-29.49-103.4-57.36
					C415.37,177.53,448.57,188.21,464.31,234.08L464.31,234.08z"/>
				<path d="M550.25,302.74c-3.08-1.27-4.52-4.89-3.17-7.96c0.63-1.54,1.9-2.71,3.35-3.26c3.53-1.63,45.23-15.92,65.32-40.17
					c-3.44,18.55-22.35,34.65-46.32,45.14c3.53,1,6.97,1.63,10.31,2.08c14.02,1.81,26.78-0.45,37.63-6.88
					c10.86-6.51,19.9-17.28,26.33-32.3c3.53-8.32,6.33-17.91,8.14-28.77c-47.77-8.68-73.82,16.83-96.08,38.63
					c-8.87,8.68-17.28,16.92-26.24,22.53c-8.05,5.16-10.58,14.57-0.81,19.45c8.05,3.98,18,6.69,28.5,9.68
					c34.11,9.5,74.18,20.63,91.55,77.26c0.9,2.99-0.54,6.15-3.44,7.42c-13.39,5.52-25.96,8.96-37.45,10.31
					c-18.91,2.26-35.19-0.72-48.49-8.14c-13.39-7.6-23.61-19.54-30.13-35.1c-3.44-8.41-5.88-17.82-7.06-28.04
					c-0.45-3.35,1.9-6.42,5.25-6.79c1.72-0.27,3.35,0.27,4.52,1.27c3.17,2.26,36.46,31.21,67.49,36.46
					c-17.91,6.33-41.25-1.99-62.33-17.55c0.9,3.53,2.08,6.88,3.35,10.04c5.43,13.03,13.84,22.89,24.79,29.04
					c11.13,6.24,24.97,8.68,41.16,6.79c8.96-1.09,18.64-3.53,28.95-7.42c-16.28-45.69-51.39-55.46-81.42-63.87
					c-12.48-3.44-24.15-6.69-33.74-12.03c-7.6-4.16-16.74-0.54-16.19,8.96c0.54,9.14,3.17,19.36,5.88,30.13
					c8.87,34.29,19.18,74.64-21.08,117.97c-2.17,2.26-5.7,2.62-8.14,0.72c-11.58-8.87-20.72-18-27.68-27.32
					c-11.4-15.2-17.01-30.76-17.19-46.05c-0.18-15.38,5.07-30.22,15.29-43.61c5.52-7.24,12.48-13.93,20.81-20.17
					c2.71-2.08,6.51-1.54,8.5,1.18c1,1.36,1.36,3.08,1.18,4.61c-0.45,3.89-8.87,47.04,2.08,76.63
					c-14.38-12.3-18.82-36.73-15.92-62.78c-2.62,2.62-4.89,5.25-6.97,7.96c-8.59,11.22-12.94,23.43-12.85,36.01
					c0.18,12.67,4.98,25.87,14.75,38.99c5.43,7.24,12.39,14.38,20.9,21.44c31.39-37,22.35-72.37,14.57-102.5
					c-3.26-12.57-6.24-24.34-6.42-35.28c-0.18-7.69-7.6-14.75-15.29-9.86c-7.87,4.98-15.56,12.48-23.7,20.54
					c-25.24,24.79-55,53.92-112.72,40.71c-3.08-0.72-5.07-3.62-4.7-6.79c1.9-14.38,5.25-26.87,9.77-37.54
					c7.51-17.46,18.27-30.13,31.39-37.91c13.21-7.87,28.59-10.77,45.41-8.5c8.96,1.18,18.27,3.8,27.86,7.87
					c3.08,1.27,4.52,4.89,3.17,7.96c-0.63,1.54-1.9,2.71-3.35,3.26c-3.62,1.63-45.23,15.92-65.32,40.17
					c3.44-18.64,22.35-34.65,46.32-45.23c-3.53-0.9-6.97-1.54-10.31-1.99c-14.02-1.81-26.78,0.45-37.63,6.88
					c-10.86,6.51-19.9,17.28-26.33,32.21c-3.53,8.41-6.33,18-8.14,28.86c47.77,8.68,73.82-16.83,96.08-38.63
					c9.05-8.87,17.55-17.19,26.69-22.89c6.33-3.89,9.95-13.93,2.44-18c-8.5-4.61-19.18-7.6-30.58-10.77
					c-34.11-9.5-74.18-20.72-91.55-77.26c-1-2.99,0.54-6.24,3.44-7.42c13.39-5.61,25.87-8.96,37.45-10.31
					c18.82-2.26,35.19,0.72,48.49,8.14c13.39,7.51,23.61,19.45,30.13,35.1c3.44,8.32,5.88,17.73,7.06,28.04
					c0.45,3.35-1.9,6.42-5.25,6.79c-1.72,0.18-3.35-0.27-4.61-1.27c-3.08-2.26-36.37-31.21-67.4-36.55
					c17.82-6.24,41.25,2.08,62.33,17.55c-1-3.44-2.08-6.79-3.44-9.95c-5.34-13.03-13.75-22.98-24.7-29.13
					c-11.13-6.15-24.97-8.59-41.16-6.69c-8.96,1.09-18.64,3.53-29.04,7.42c16.37,45.69,51.48,55.46,81.51,63.87
					c11.58,3.17,22.44,6.24,31.66,10.86c6.79,3.44,18.64,4.16,18.36-6.24c-0.27-9.5-3.08-20.26-5.97-31.75
					c-8.87-34.2-19.18-74.55,21.08-117.97c2.17-2.26,5.7-2.53,8.14-0.63c11.58,8.78,20.72,18,27.68,27.23
					c11.4,15.2,17.01,30.85,17.19,46.14c0.18,15.38-5.07,30.13-15.38,43.61c-5.52,7.15-12.39,13.93-20.72,20.17
					c-2.71,1.99-6.51,1.45-8.5-1.18c-1-1.36-1.36-3.08-1.18-4.61c0.45-3.89,8.87-47.13-2.08-76.63
					c14.38,12.3,18.82,36.73,15.92,62.78c2.62-2.62,4.89-5.25,6.97-7.96c8.59-11.22,12.94-23.43,12.85-36.01
					c-0.18-12.76-4.98-25.96-14.75-38.99c-5.43-7.24-12.39-14.38-20.9-21.44c-31.39,37-22.35,72.28-14.57,102.5
					c3.08,11.85,5.88,23.07,6.42,33.56c0.36,9.14,6.79,17.01,15.38,11.49c7.87-5.07,15.47-12.48,23.61-20.45
					c25.24-24.79,55-53.92,112.72-40.71c3.08,0.72,5.07,3.62,4.7,6.69c-1.9,14.38-5.25,26.96-9.77,37.63
					c-7.51,17.46-18.27,30.13-31.39,37.91c-13.21,7.87-28.68,10.68-45.41,8.5C569.16,309.44,559.84,306.81,550.25,302.74
					L550.25,302.74z M575.04,445.68c-0.18,6.79-2.99,12.94-7.42,17.37c-4.7,4.61-11.04,7.51-18.09,7.51l0,0
					c-7.15,0-13.48-2.89-18.09-7.51c-4.61-4.61-7.51-11.04-7.51-18.09l0,0c0-7.06,2.89-13.48,7.51-18.09
					c4.61-4.61,11.04-7.51,18.09-7.51h0.63h0.09c6.79,0.27,12.85,3.08,17.37,7.51c4.61,4.61,7.42,11.04,7.42,18.09V445.68
					L575.04,445.68z M560.75,456.17c2.8-2.89,4.61-6.88,4.61-11.22l0,0c0-4.34-1.81-8.32-4.7-11.22c-2.8-2.89-6.79-4.61-11.13-4.61
					l0,0l0,0c-4.43,0-8.41,1.72-11.22,4.61c-2.89,2.89-4.7,6.88-4.7,11.22l0,0c0,4.34,1.81,8.32,4.7,11.22
					c2.8,2.89,6.79,4.61,11.22,4.61l0,0C553.87,460.79,557.85,459.07,560.75,456.17L560.75,456.17z M475.98,152.29l0.09,0.09v2.08
					l0,0c-0.18,6.79-3.08,12.94-7.51,17.37c-4.25,4.25-10.13,7.06-16.65,7.42h-0.09h-1.36c-7.06,0-13.48-2.8-18.09-7.42
					c-4.25-4.34-7.06-10.22-7.42-16.74v-0.09v-1.27c0-7.06,2.8-13.48,7.42-18.09c4.34-4.34,10.22-7.15,16.74-7.51h2.08
					c6.79,0.18,12.94,2.99,17.37,7.51C472.9,139.99,475.71,145.78,475.98,152.29L475.98,152.29z M461.69,164.96
					c6.06-6.06,6.06-16.37,0-22.44c-2.89-2.89-6.79-4.61-11.22-4.61l0,0c-4.34,0-8.32,1.72-11.22,4.61
					c-2.8,2.89-4.61,6.79-4.61,11.22l0,0c0,4.34,1.81,8.32,4.61,11.22c2.89,2.8,6.88,4.61,11.22,4.61l0,0
					C454.9,169.57,458.79,167.76,461.69,164.96L461.69,164.96z M663.61,307.08c6.15,3.62,10.22,9.23,11.94,15.56
					c1.72,6.33,1,13.3-2.53,19.45l0,0c-3.53,6.06-9.23,10.22-15.56,11.85c-6.33,1.72-13.3,1-19.36-2.53l0,0
					c-6.15-3.53-10.22-9.23-11.94-15.47c-1.63-6.15-1-12.85,2.17-18.82l0,0l0.36-0.63c3.53-6.15,9.23-10.22,15.56-11.94
					c6.06-1.63,12.76-1,18.73,2.26h0.09L663.61,307.08z M666.14,325.18c-1-3.89-3.53-7.42-7.33-9.59l0,0
					c-3.8-2.26-8.14-2.62-12.03-1.63c-3.98,1.09-7.51,3.62-9.68,7.33v0.09c-2.17,3.71-2.62,8.05-1.54,12.03
					c1,3.89,3.53,7.42,7.33,9.59l0,0c3.8,2.17,8.14,2.62,12.03,1.63c3.98-1.09,7.51-3.62,9.68-7.42l0,0
					C666.78,333.41,667.23,329.07,666.14,325.18L666.14,325.18z M361.27,246.92L361.27,246.92l1.81,1l0.09,0.09
					c5.43,3.53,9.14,8.87,10.68,14.75c3.71,13.93-4.25,27.68-18.09,31.39c-6.33,1.63-13.3,0.9-19.36-2.62l-1.18-0.63l-0.09-0.09
					c-5.43-3.53-9.14-8.87-10.68-14.75c-1.72-6.33-1-13.3,2.53-19.45l0.63-1.18h0.09c3.62-5.52,8.96-9.14,14.84-10.77
					C348.6,243.03,355.3,243.67,361.27,246.92L361.27,246.92z M364.43,265.29c-2.17-8.23-11.22-13.39-19.36-11.22
					c-3.98,1.09-7.51,3.62-9.68,7.42l0,0c-2.17,3.8-2.62,8.05-1.54,12.03c1,3.89,3.53,7.42,7.33,9.59l0,0
					c3.8,2.17,8.14,2.62,12.03,1.63c3.98-1.09,7.51-3.62,9.68-7.42l0,0C365.07,273.52,365.52,269.18,364.43,265.29L364.43,265.29z
					 M588.52,161.52c6.15-3.53,13.12-4.25,19.45-2.53c6.33,1.63,12.03,5.79,15.56,11.85c3.53,6.15,4.25,13.12,2.53,19.45
					c-1.72,6.33-5.79,12.03-11.94,15.56l0,0c-6.15,3.53-13.12,4.25-19.36,2.53c-6.33-1.72-12.03-5.79-15.56-11.94
					c-3.53-6.06-4.25-13.12-2.53-19.36C578.3,170.75,582.46,165.05,588.52,161.52L588.52,161.52z M605.44,168.4
					c-3.89-1.09-8.23-0.63-12.03,1.54c-3.8,2.17-6.33,5.7-7.33,9.59c-1.09,3.98-0.63,8.23,1.54,12.03c2.17,3.8,5.7,6.33,9.59,7.42
					c3.98,1.09,8.32,0.63,12.03-1.54v-0.09c3.8-2.17,6.33-5.7,7.42-9.59c1.09-3.89,0.63-8.23-1.63-12.03
					C612.86,171.92,609.33,169.39,605.44,168.4L605.44,168.4z M385.87,392.85c6.06-3.53,13.03-4.25,19.36-2.53
					c6.33,1.72,12.03,5.79,15.56,11.94c3.53,6.06,4.25,13.03,2.53,19.36c-1.63,6.33-5.79,12.03-11.85,15.56
					c-6.15,3.53-13.12,4.25-19.45,2.53c-6.33-1.72-12.03-5.79-15.56-11.94c-3.53-6.06-4.25-13.03-2.53-19.36
					C375.65,402.07,379.72,396.38,385.87,392.85L385.87,392.85z M402.7,399.72c-3.89-1.09-8.23-0.63-11.94,1.54
					c-3.8,2.26-6.33,5.7-7.42,9.68c-1.09,3.89-0.63,8.23,1.54,12.03c2.26,3.71,5.7,6.33,9.68,7.33c3.89,1.09,8.23,0.63,12.03-1.54
					c3.8-2.26,6.33-5.7,7.33-9.68c1.09-3.89,0.63-8.23-1.54-12.03C410.21,403.34,406.68,400.72,402.7,399.72L402.7,399.72z"/>
			</g>
			<g>
				<path class="st2" d="M711.97,409.38c-0.07-0.01-0.14-0.02-0.21-0.02c-6.07,0-23.86,38.54-33.6,55.4
					c-1.74,3.02-3.23,5.35-4.35,6.64c-16.63,19.15-35.77,33.01-57.8,41.19c-2.25,0.83-4.53,1.61-6.84,2.33
					c-11.98,3.71-24.76,5.84-38.45,6.26c21.38-13.47,44.94-39.8,44.54-66.69c-0.02-1.07-0.72-1.56-1.98-1.55
					c-12.34,0-78.2,46.37-82.91,52.71c-4.71,6.35-8.73,13.19-12.13,20.36c-4.06,8.58-7.2,17.65-9.42,27.01
					c-1.79,7.55-3.01,15.27-3.65,23.07c-2.66,32.61,4.63,66.43,20.65,93.25c11.22-32.43,36.61-52.76,63.34-73.55
					c29.45-22.89,73.38-36.06,96.84-66.13C692.73,521.04,737.3,413.31,711.97,409.38z"/>
				<path class="st2" d="M491.17,553.02c-2.22-9.36-5.36-18.43-9.42-27.01c-3.39-7.17-7.41-14-12.13-20.36
					c-4.71-6.35-70.58-52.71-82.91-52.71c-1.27,0-1.97,0.49-1.98,1.55c-0.4,26.89,23.16,53.22,44.54,66.69
					c-13.69-0.42-26.47-2.55-38.45-6.26c-2.31-0.72-4.59-1.49-6.84-2.33c-22.03-8.18-41.17-22.04-57.8-41.19
					c-1.12-1.29-2.61-3.63-4.36-6.66c-9.74-16.87-27.52-55.38-33.59-55.38c-0.07,0-0.14,0.01-0.21,0.02
					c-25.33,3.93,19.23,111.66,25.96,120.28c23.46,30.06,67.39,43.24,96.84,66.13c26.73,20.78,52.13,41.11,63.34,73.55
					c16.02-26.82,23.32-60.64,20.65-93.25C494.19,568.29,492.97,560.57,491.17,553.02z"/>
			</g>
		</g>
	</g>
</g>
<g id="Layer_4" class="st3">
	<path class="st4" d="M-1430.28,708.73h-24.17c1.68,8.2,2.92,15.13,3.74,20.81c0.81,5.68,1.22,10.66,1.22,14.95
		c0,4.05-1.02,7.37-3.07,9.95c-2.05,2.58-4.83,4.49-8.35,5.73c-3.52,1.23-7.46,1.85-11.84,1.85c-8.43,0-14.6-1.69-18.51-5.06
		c-3.91-3.38-5.87-8.65-5.87-15.82c0-3.72,0.38-7.83,1.15-12.33c0.77-4.49,1.78-9.02,3.04-13.58h-21.37
		c-1.72,4.7-3.15,9.93-4.29,15.68c-1.14,5.75-1.71,11.23-1.71,16.45c0,9.12,1.82,17.01,5.45,23.64s8.82,11.74,15.57,15.33
		c6.75,3.58,14.81,5.38,24.17,5.38c8.15,0,15.32-1.05,21.51-3.14c6.19-2.1,11.38-5.21,15.57-9.36c4.05-4.05,7.11-9.1,9.18-15.15
		c2.07-6.05,3.11-13.13,3.11-21.23c0-4.56-0.31-9.55-0.94-14.98C-1427.31,722.41-1428.51,716.04-1430.28,708.73z"/>
	<path class="st4" d="M-1372.38,705.31h-24.16c1.86,7.73,3.35,14.09,4.47,19.07c1.12,4.98,1.92,9.13,2.41,12.43
		c0.49,3.31,0.73,6.31,0.73,9.01c0,3.03-0.42,6.04-1.26,9.04c-0.84,3-2.18,5.74-4.02,8.21c-1.84,2.47-4.25,4.45-7.23,5.94
		c-2.98,1.49-6.61,2.23-10.9,2.23c-1.58,0-3.03-0.07-4.33-0.21c-1.3-0.14-2.4-0.33-3.28-0.56v26.05c0.56,0.37,1.44,0.73,2.65,1.08
		c1.21,0.35,2.63,0.63,4.26,0.84c1.63,0.21,3.33,0.31,5.1,0.31c5.59,0,10.91-1.15,15.96-3.46c5.05-2.3,9.54-5.73,13.48-10.27
		c3.93-4.54,7.03-10.21,9.29-17.01c2.26-6.8,3.39-14.67,3.39-23.61c0-6.29-0.58-12.8-1.75-19.56
		C-1368.73,718.11-1370.33,711.59-1372.38,705.31z"/>
	<path class="st4" d="M-1245.92,660.27L-1245.92,660.27c-5.54-5.66-14.63-5.68-20.2-0.05l0,0c-5.46,5.51-5.47,14.39-0.03,19.91h0
		c5.57,5.66,14.71,5.64,20.25-0.05l0,0C-1240.53,674.56-1240.54,665.77-1245.92,660.27z"/>
	<path class="st4" d="M-1375.43,660.27L-1375.43,660.27c-5.54-5.66-14.63-5.68-20.2-0.05l0,0c-5.46,5.51-5.47,14.39-0.03,19.91l0,0
		c5.57,5.66,14.71,5.64,20.25-0.05l0,0C-1370.03,674.56-1370.04,665.77-1375.43,660.27z"/>
	<path class="st4" d="M-1462.9,660.27L-1462.9,660.27c-5.54-5.66-14.63-5.68-20.2-0.05l0,0c-5.45,5.51-5.47,14.39-0.03,19.91l0,0
		c5.57,5.66,14.71,5.64,20.25-0.05l0,0C-1457.5,674.56-1457.51,665.77-1462.9,660.27z"/>
	<path class="st4" d="M-1125.22,715.12c-2.47-5.19-5.84-9.38-10.13-12.57c-4.28-3.19-9.15-4.79-14.6-4.79
		c-6.19,0-11.56,1.77-16.1,5.31c-4.54,3.54-8.49,8.2-11.84,13.97l-3.42,5.87c-1.77,3.03-3.31,5.48-4.61,7.37
		c-1.3,1.88-2.76,3.26-4.36,4.12c-1.61,0.86-3.81,1.29-6.6,1.29h-5.03c-2.29,0-4.3-0.1-6.08-0.28v-27.09h-8.52
		c-5.49,0-10.45-0.49-14.88-1.47c-4.42-0.98-8.61-2.18-12.57-3.6c-3.96-1.42-7.9-2.84-11.84-4.26c-3.94-1.42-8.11-2.62-12.54-3.6
		c-4.42-0.98-9.36-1.47-14.81-1.47c-3.87,0-7.45,0.28-10.76,0.84c-3.31,0.56-6.26,1.33-8.87,2.3v23.26c2.28-0.56,4.71-0.99,7.3-1.29
		c2.58-0.3,5.2-0.46,7.86-0.46c5.49,0,10.2,0.37,14.11,1.12c3.91,0.75,7.39,1.68,10.44,2.79c3.05,1.12,6.02,2.22,8.9,3.32
		c1.1,0.42,2.26,0.8,3.46,1.16c-1.65,0.62-3.36,1.23-5.17,1.85c-1.98,0.68-4.46,1.41-7.44,2.2c-4.14,1.12-8.56,2.03-13.23,2.72
		c-4.68,0.7-9.82,1.2-15.44,1.5c-5.6,0.3-11.85,0.45-18.76,0.45c-4.32,0-7.5-0.44-9.52-1.33c-2.03-0.88-3.33-2.4-3.91-4.54
		c-0.58-2.14-0.87-5.12-0.87-8.94v-65.37h-23.47v73.68c0,13.46,2.82,22.97,8.45,28.53c5.63,5.56,14.62,8.35,26.96,8.35
		c0.02,0,0.04,0,0.06,0c0,0,0,0,0.01,0c0,0,0,0,0.01,0c9.14,0,17.29-0.55,24.44-1.64c7.17-1.09,13.73-2.79,19.7-5.1
		c5.96-2.3,11.69-5.29,17.18-8.97c6.47-4.33,11.78-7.52,15.92-9.57c0.61-0.3,1.2-0.58,1.78-0.85c0.84,8.31,3.4,14.5,7.68,18.55
		c5.33,5.05,13.05,7.58,23.15,7.58h3.91c0.02,0,0.04,0,0.05,0c0.01,0,0.01,0,0.02,0c0.01,0,0.02,0,0.02,0
		c5.4-0.01,9.71-0.88,12.93-2.62c2.62-1.41,4.91-3.48,6.87-6.18c1.08,0.87,2.19,1.7,3.39,2.44c3.47,2.14,7.2,3.74,11.21,4.78
		c4,1.05,7.96,1.57,11.87,1.57c6.84,0,12.59-1.43,17.25-4.29c4.66-2.86,8.17-6.86,10.55-11.98c2.37-5.12,3.56-11.06,3.56-17.81
		C-1121.52,725.93-1122.75,720.31-1125.22,715.12z M-1144.98,736.73c-1.07,1.03-2.96,1.54-5.66,1.54c-2.61,0-5.39-0.35-8.35-1.05
		c-2.64-0.62-5.26-1.53-7.84-2.7c1.74-3.11,3.46-5.64,5.15-7.57c2.28-2.61,5.26-3.91,8.94-3.91c1.91,0,3.56,0.48,4.96,1.43
		c1.4,0.96,2.48,2.15,3.25,3.6c0.77,1.45,1.15,2.89,1.15,4.33C-1143.38,734.27-1143.91,735.71-1144.98,736.73z"/>
	<path d="M62.19,719.49v30.33H44.46v-7.43c-2.19,5.67-6.58,8.46-13.09,8.46c-11.31,0-17.14-7.84-17.14-17.54
		c0-10.94,6.75-17.02,21.11-17.02h7.68c-0.59-4.33-3.29-6.6-8.7-6.6c-4.14,0-8.78,1.65-11.82,4.44l-6.08-15.37
		c5.4-4.13,13.59-6.4,20.77-6.4C53.07,692.35,62.19,700.71,62.19,719.49z M43.11,731.46v-3.92h-4.73c-4.05,0-5.83,1.65-5.83,4.75
		c0,2.58,1.69,4.54,4.56,4.54C39.73,736.82,42.09,735.17,43.11,731.46z"/>
	<path d="M90.47,732.49l-3.04,4.02v13.31H68.35v-76.56h19.08v36.53l13.25-16.41h22.54l-19.08,24.45l20.6,31.99H101.7L90.47,732.49z"
		/>
	<path d="M177.42,717.63v32.19h-19.08v-28.17c0-7.02-2.2-9.7-5.66-9.7c-3.88,0-7.18,2.99-7.18,11.35v26.52h-19.08v-76.56h19.08
		v24.66c3.55-3.71,8.02-5.57,13-5.57C169.15,692.35,177.42,699.88,177.42,717.63z"/>
	<path d="M229.26,719.49v30.33h-17.73v-7.43c-2.19,5.67-6.58,8.46-13.09,8.46c-11.31,0-17.14-7.84-17.14-17.54
		c0-10.94,6.75-17.02,21.11-17.02h7.68c-0.59-4.33-3.29-6.6-8.7-6.6c-4.14,0-8.78,1.65-11.82,4.44l-6.08-15.37
		c5.4-4.13,13.59-6.4,20.77-6.4C220.14,692.35,229.26,700.71,229.26,719.49z M210.18,731.46v-3.92h-4.73
		c-4.05,0-5.83,1.65-5.83,4.75c0,2.58,1.69,4.54,4.56,4.54C206.8,736.82,209.16,735.17,210.18,731.46z"/>
	<path d="M277.8,732.8v17.02h-44.07v-13.41l19.08-26H234.4v-17.02h42.47v13.41l-19.08,26H277.8z"/>
	<path d="M330.31,727.02h-32.08c1.35,4.33,4.56,6.6,9.29,6.6c4.22,0,6.59-1.34,9.62-4.13l9.96,12.28
		c-4.47,5.98-10.98,9.08-20.18,9.08c-16.97,0-27.95-12.49-27.95-29.3c0-17.13,11.23-29.2,26.17-29.2c13.68,0,25.41,10.11,25.41,29.2
		C330.56,723.2,330.39,725.37,330.31,727.02z M297.89,715.77h14.86c-0.76-4.75-3.55-7.53-7.43-7.53
		C301.35,708.24,298.65,711.03,297.89,715.77z"/>
	<path d="M385.44,717.63v32.19h-19.08v-28.17c0-7.02-2.2-9.7-5.66-9.7c-3.88,0-7.18,2.99-7.18,11.35v26.52h-19.08v-56.44h18.15v5.57
		c3.63-4.44,8.53-6.6,13.93-6.6C377.16,692.35,385.44,699.88,385.44,717.63z"/>
	<path d="M-8.56,749.82l-0.17-32.91l-12.83,26.41h-8.78l-12.83-25.28v31.78h-18.15V677.6h16.38l19.25,38.49l18.74-38.49H9.43
		l0.17,72.23H-8.56z"/>
</g>
</svg>
