<?xml version="1.0" encoding="utf-8"?>
<!-- Generator: Adobe Illustrator 28.3.0, SVG Export Plug-In . SVG Version: 6.00 Build 0)  -->
<svg version="1.1" xmlns="http://www.w3.org/2000/svg" xmlns:xlink="http://www.w3.org/1999/xlink" x="0px" y="0px"
	 viewBox="0 0 1000 1000" style="enable-background:new 0 0 1000 1000;" xml:space="preserve">
<style type="text/css">
	.st0{display:none;fill:#FFDD00;}
	.st1{fill-rule:evenodd;clip-rule:evenodd;fill:#FFFFFF;}
	.st2{fill:#FFFFFF;}
	.st3{fill:none;stroke:#000000;stroke-width:10;stroke-miterlimit:10;}
</style>
<g id="Layer_1">
	<rect x="-387.7" y="-78.23" class="st0" width="1772.51" height="1275.83"/>
	<path class="st1" d="M459.79,24.54c-2.53-2.53-5.97-4.07-9.86-4.07s-7.33,1.54-9.95,4.07c-2.53,2.53-4.07,6.06-4.07,9.86
		c0,3.89,1.54,7.42,4.16,9.95c2.53,2.53,5.97,4.07,9.77,4.07h0.09c3.89,0,7.33-1.54,9.86-4.07
		C465.13,39.01,465.13,29.88,459.79,24.54"/>
	<path class="st1" d="M609.69,32.72c0.9-3.44,0.54-7.24-1.45-10.58c-1.9-3.35-4.97-5.61-8.5-6.51c-3.44-1-7.24-0.54-10.58,1.36
		c-3.35,1.9-5.61,5.07-6.51,8.5c-0.99,3.44-0.54,7.24,1.36,10.58v0.09c1.9,3.26,5.07,5.52,8.5,6.51
		C599.74,44.57,607.7,40.05,609.69,32.72"/>
</g>
<g id="Layer_6">
</g>
<g id="Layer_7">
</g>
<g id="Layer_2">
</g>
<g id="Layer_3">
	<g>
		<path class="st1" d="M357.02,252.22c3.44-0.99,6.6-3.17,8.5-6.51c1.99-3.35,2.35-7.24,1.45-10.67c-0.99-3.44-3.26-6.6-6.6-8.5
			c-3.35-1.9-7.15-2.35-10.58-1.36c-3.44,0.91-6.6,3.08-8.5,6.42v0.09c-1.9,3.35-2.35,7.15-1.45,10.58
			C341.82,249.5,349.78,254.12,357.02,252.22"/>
		<path class="st1" d="M557.94,398.32c-2.53-2.53-6.06-4.07-9.95-4.07c-3.89,0-7.33,1.54-9.86,4.07c-2.53,2.53-4.16,6.06-4.16,9.95
			c0,3.8,1.63,7.33,4.16,9.86c2.53,2.53,5.97,4.07,9.77,4.07h0.09c3.89,0,7.33-1.54,9.95-4.07
			C563.19,412.8,563.19,403.66,557.94,398.32"/>
		<path class="st1" d="M415.28,383.21c0.99-3.44,0.54-7.24-1.36-10.58c-1.9-3.35-5.07-5.61-8.5-6.51c-3.44-1-7.33-0.54-10.67,1.36
			c-3.35,1.9-5.61,5.07-6.51,8.5c-0.9,3.44-0.54,7.24,1.36,10.58l0.09,0.09c1.9,3.35,4.98,5.52,8.5,6.51
			C405.42,395.06,413.38,390.54,415.28,383.21"/>
		<path class="st1" d="M649.5,309.48c3.44-0.99,6.51-3.17,8.5-6.51c1.9-3.35,2.26-7.24,1.36-10.67s-3.17-6.6-6.51-8.5
			c-3.35-1.9-7.15-2.35-10.58-1.36c-3.53,0.91-6.6,3.17-8.5,6.42l-0.09,0.09c-1.9,3.35-2.26,7.15-1.36,10.58
			C634.3,306.77,642.17,311.38,649.5,309.48"/>
		<path class="st1" d="M538.67,203.27c-13.48,10.59-20.27,15.92-20.27,15.92c-20.27-55.91-20.99-95.35-1.99-118.24
			C563.1,132.62,570.52,166.72,538.67,203.27"/>
		<path class="st1" d="M574.41,268.59c-16.01-6.42-23.97-9.59-23.97-9.59c38.27-45.6,72.1-65.86,101.41-60.88
			C647.78,254.39,622,277.91,574.41,268.59"/>
		<path class="st1" d="M535.69,332.1c-2.44-17.01-3.71-25.51-3.71-25.51c58.62,10.4,93.09,29.49,103.4,57.36
			C584.63,388.55,551.43,377.97,535.69,332.1"/>
		<path class="st1" d="M461.32,330.38c13.48-10.58,20.26-15.92,20.26-15.92c20.26,55.91,20.99,95.35,1.99,118.15
			C436.9,401.03,429.39,366.93,461.32,330.38"/>
		<path class="st1" d="M425.59,265.06c15.92,6.42,23.97,9.59,23.97,9.59c-38.27,45.6-72.1,65.86-101.41,60.88
			C352.22,279.27,378,255.74,425.59,265.06"/>
		<path class="st1" d="M464.31,201.55c2.44,17.01,3.62,25.51,3.62,25.51c-58.53-10.4-93-29.49-103.4-57.36
			C415.37,145.01,448.57,155.69,464.31,201.55"/>
		<path d="M550.25,270.22c-3.08-1.27-4.52-4.89-3.17-7.96c0.63-1.54,1.9-2.71,3.35-3.26c3.53-1.63,45.23-15.92,65.32-40.17
			c-3.44,18.55-22.34,34.65-46.32,45.14c3.53,1,6.97,1.63,10.31,2.08c14.02,1.81,26.78-0.45,37.64-6.88
			c10.86-6.51,19.9-17.28,26.33-32.3c3.53-8.32,6.33-17.91,8.14-28.77c-47.77-8.68-73.82,16.83-96.08,38.63
			c-8.86,8.68-17.28,16.92-26.23,22.53c-8.05,5.16-10.59,14.57-0.81,19.45c8.05,3.98,18,6.69,28.5,9.68
			c34.11,9.5,74.18,20.63,91.55,77.26c0.91,2.99-0.54,6.15-3.44,7.42c-13.39,5.52-25.96,8.96-37.45,10.31
			c-18.91,2.26-35.19-0.72-48.49-8.14c-13.39-7.6-23.61-19.54-30.13-35.1c-3.44-8.41-5.88-17.82-7.06-28.04
			c-0.45-3.35,1.9-6.42,5.25-6.78c1.72-0.27,3.35,0.27,4.52,1.27c3.17,2.26,36.46,31.21,67.49,36.46
			c-17.91,6.33-41.25-1.99-62.33-17.55c0.9,3.53,2.08,6.88,3.35,10.04c5.43,13.03,13.84,22.89,24.79,29.04
			c11.13,6.24,24.97,8.68,41.16,6.79c8.96-1.09,18.64-3.53,28.95-7.42c-16.28-45.69-51.39-55.46-81.42-63.87
			c-12.48-3.44-24.15-6.7-33.74-12.03c-7.6-4.16-16.74-0.54-16.19,8.96c0.54,9.14,3.17,19.36,5.88,30.13
			c8.87,34.29,19.18,74.64-21.08,117.97c-2.17,2.26-5.7,2.62-8.14,0.72c-11.58-8.86-20.72-18-27.68-27.32
			c-11.4-15.2-17.01-30.76-17.19-46.05c-0.18-15.38,5.07-30.22,15.29-43.6c5.52-7.24,12.48-13.93,20.81-20.17
			c2.71-2.08,6.51-1.54,8.5,1.18c0.99,1.36,1.36,3.08,1.18,4.61c-0.45,3.89-8.87,47.04,2.08,76.63
			c-14.39-12.3-18.82-36.73-15.92-62.78c-2.62,2.62-4.89,5.25-6.97,7.96c-8.59,11.22-12.94,23.43-12.85,36.01
			c0.18,12.67,4.98,25.87,14.75,38.99c5.43,7.24,12.39,14.38,20.9,21.44c31.39-37,22.35-72.38,14.57-102.5
			c-3.26-12.58-6.24-24.34-6.42-35.28c-0.18-7.69-7.6-14.75-15.29-9.86c-7.87,4.98-15.56,12.48-23.7,20.54
			c-25.24,24.79-55.01,53.92-112.72,40.71c-3.08-0.72-5.07-3.62-4.7-6.79c1.9-14.38,5.25-26.87,9.77-37.54
			c7.51-17.46,18.28-30.13,31.39-37.91c13.21-7.87,28.59-10.77,45.41-8.5c8.96,1.18,18.28,3.8,27.86,7.87
			c3.08,1.27,4.52,4.89,3.17,7.96c-0.63,1.54-1.9,2.71-3.35,3.26c-3.62,1.63-45.23,15.92-65.32,40.17
			c3.44-18.64,22.34-34.65,46.32-45.23c-3.53-0.9-6.97-1.54-10.31-1.99c-14.02-1.81-26.78,0.45-37.64,6.88
			c-10.86,6.51-19.9,17.28-26.33,32.21c-3.53,8.41-6.33,18-8.14,28.86c47.77,8.68,73.82-16.83,96.08-38.63
			c9.05-8.87,17.55-17.19,26.69-22.89c6.33-3.89,9.95-13.93,2.44-18c-8.5-4.61-19.18-7.6-30.58-10.76
			c-34.11-9.5-74.18-20.72-91.55-77.26c-0.99-2.99,0.54-6.24,3.44-7.42c13.39-5.61,25.87-8.96,37.45-10.31
			c18.82-2.26,35.19,0.72,48.49,8.14c13.39,7.51,23.61,19.45,30.13,35.1c3.44,8.32,5.88,17.73,7.06,28.05
			c0.45,3.35-1.9,6.42-5.25,6.78c-1.72,0.18-3.35-0.27-4.61-1.27c-3.08-2.26-36.37-31.21-67.4-36.55
			c17.82-6.24,41.25,2.08,62.33,17.55c-0.99-3.44-2.08-6.78-3.44-9.95c-5.34-13.03-13.75-22.98-24.7-29.13
			c-11.13-6.15-24.97-8.59-41.16-6.69c-8.96,1.09-18.64,3.53-29.04,7.42c16.37,45.69,51.48,55.46,81.51,63.87
			c11.58,3.17,22.44,6.24,31.66,10.86c6.78,3.44,18.64,4.16,18.36-6.24c-0.27-9.5-3.08-20.27-5.97-31.75
			c-8.87-34.2-19.18-74.55,21.08-117.97c2.17-2.26,5.7-2.53,8.14-0.63c11.58,8.78,20.72,18,27.68,27.23
			c11.4,15.2,17.01,30.85,17.19,46.14c0.18,15.38-5.07,30.13-15.38,43.61c-5.52,7.15-12.39,13.93-20.72,20.17
			c-2.71,1.99-6.51,1.45-8.5-1.18c-0.99-1.36-1.36-3.08-1.18-4.61c0.45-3.89,8.87-47.13-2.08-76.63
			c14.39,12.3,18.82,36.73,15.92,62.78c2.62-2.62,4.89-5.25,6.97-7.96c8.59-11.22,12.94-23.43,12.85-36.01
			c-0.18-12.76-4.98-25.96-14.75-38.99c-5.43-7.24-12.39-14.38-20.9-21.44c-31.39,37-22.35,72.28-14.57,102.5
			c3.08,11.85,5.88,23.07,6.42,33.56c0.36,9.14,6.78,17.01,15.38,11.49c7.87-5.07,15.47-12.48,23.61-20.45
			c25.24-24.79,55.01-53.92,112.72-40.71c3.08,0.72,5.07,3.62,4.71,6.7c-1.9,14.38-5.25,26.96-9.77,37.63
			c-7.51,17.46-18.27,30.13-31.39,37.91c-13.21,7.87-28.68,10.68-45.41,8.5C569.16,276.91,559.84,274.29,550.25,270.22
			 M575.04,413.16c-0.18,6.79-2.99,12.94-7.42,17.37c-4.71,4.61-11.04,7.51-18.09,7.51c-7.15,0-13.48-2.89-18.09-7.51
			c-4.61-4.61-7.51-11.04-7.51-18.09c0-7.06,2.89-13.48,7.51-18.09c4.61-4.61,11.04-7.51,18.09-7.51h0.63h0.09
			c6.78,0.27,12.85,3.08,17.37,7.51c4.61,4.61,7.42,11.04,7.42,18.09V413.16z M560.75,423.65c2.8-2.9,4.61-6.88,4.61-11.22
			c0-4.34-1.81-8.32-4.7-11.22c-2.8-2.9-6.78-4.61-11.13-4.61c-4.43,0-8.41,1.72-11.22,4.61c-2.89,2.89-4.7,6.88-4.7,11.22
			c0,4.34,1.81,8.32,4.7,11.22c2.8,2.9,6.79,4.61,11.22,4.61C553.87,428.27,557.85,426.55,560.75,423.65 M475.98,119.77l0.09,0.09
			v2.08c-0.18,6.79-3.08,12.94-7.51,17.37c-4.25,4.25-10.13,7.06-16.65,7.42h-0.09h-1.36c-7.06,0-13.48-2.8-18.09-7.42
			c-4.25-4.34-7.06-10.22-7.42-16.74v-0.09v-1.27c0-7.06,2.81-13.48,7.42-18.09c4.34-4.34,10.22-7.15,16.74-7.51h2.08
			c6.79,0.18,12.94,2.98,17.37,7.51C472.9,107.47,475.71,113.26,475.98,119.77 M461.69,132.44c6.06-6.06,6.06-16.37,0-22.44
			c-2.9-2.89-6.79-4.61-11.22-4.61c-4.34,0-8.32,1.72-11.22,4.61c-2.8,2.9-4.61,6.79-4.61,11.22c0,4.34,1.81,8.32,4.61,11.22
			c2.9,2.8,6.88,4.61,11.22,4.61C454.9,137.05,458.79,135.24,461.69,132.44 M663.61,274.56c6.15,3.62,10.22,9.23,11.94,15.56
			c1.72,6.33,0.99,13.3-2.53,19.45c-3.53,6.06-9.23,10.22-15.56,11.85c-6.33,1.72-13.3,1-19.36-2.53
			c-6.15-3.53-10.22-9.23-11.94-15.47c-1.63-6.15-0.99-12.85,2.17-18.82l0.36-0.63c3.53-6.15,9.23-10.22,15.56-11.94
			c6.06-1.63,12.76-0.99,18.73,2.26h0.09L663.61,274.56z M666.14,292.66c-0.99-3.89-3.53-7.42-7.33-9.59
			c-3.8-2.26-8.14-2.62-12.03-1.63c-3.98,1.09-7.51,3.62-9.68,7.33v0.09c-2.17,3.71-2.62,8.05-1.54,12.03
			c0.99,3.89,3.53,7.42,7.33,9.59c3.8,2.17,8.14,2.62,12.03,1.63c3.98-1.09,7.51-3.62,9.68-7.42
			C666.78,300.89,667.23,296.55,666.14,292.66 M361.27,214.4L361.27,214.4l1.81,0.99l0.09,0.09c5.43,3.53,9.14,8.86,10.68,14.75
			c3.71,13.93-4.25,27.68-18.09,31.39c-6.33,1.63-13.3,0.91-19.36-2.62l-1.18-0.63l-0.09-0.09c-5.43-3.53-9.14-8.87-10.68-14.75
			c-1.72-6.33-0.99-13.3,2.53-19.45l0.63-1.18h0.09c3.62-5.52,8.96-9.14,14.84-10.77C348.6,210.51,355.3,211.14,361.27,214.4
			 M364.43,232.77c-2.17-8.23-11.22-13.39-19.36-11.22c-3.98,1.09-7.51,3.62-9.68,7.42c-2.17,3.8-2.62,8.05-1.54,12.03
			c0.99,3.89,3.53,7.42,7.33,9.59c3.8,2.17,8.14,2.62,12.03,1.63c3.98-1.09,7.51-3.62,9.68-7.42
			C365.07,241,365.52,236.66,364.43,232.77 M588.52,129c6.15-3.53,13.12-4.25,19.45-2.53c6.33,1.63,12.03,5.79,15.56,11.85
			c3.53,6.15,4.25,13.12,2.53,19.45c-1.72,6.33-5.79,12.03-11.94,15.56c-6.15,3.53-13.12,4.25-19.36,2.53
			c-6.33-1.72-12.03-5.79-15.56-11.94c-3.53-6.06-4.25-13.12-2.53-19.36C578.3,138.23,582.46,132.53,588.52,129 M605.44,135.87
			c-3.89-1.09-8.23-0.63-12.03,1.54c-3.8,2.17-6.33,5.7-7.33,9.59c-1.09,3.98-0.63,8.23,1.54,12.03c2.17,3.8,5.7,6.33,9.59,7.42
			c3.98,1.09,8.32,0.63,12.03-1.54v-0.09c3.8-2.17,6.33-5.7,7.42-9.59c1.09-3.89,0.63-8.23-1.63-12.03
			C612.86,139.4,609.33,136.87,605.44,135.87 M385.87,360.32c6.06-3.53,13.03-4.25,19.36-2.53c6.33,1.72,12.03,5.79,15.56,11.94
			c3.53,6.06,4.25,13.03,2.53,19.36c-1.63,6.33-5.79,12.03-11.85,15.56c-6.15,3.53-13.12,4.25-19.45,2.53
			c-6.33-1.72-12.03-5.79-15.56-11.94c-3.53-6.06-4.25-13.03-2.53-19.36C375.65,369.55,379.72,363.85,385.87,360.32 M402.7,367.2
			c-3.89-1.09-8.23-0.63-11.94,1.54c-3.8,2.26-6.33,5.7-7.42,9.68c-1.09,3.89-0.63,8.23,1.54,12.03c2.26,3.71,5.7,6.33,9.68,7.33
			c3.89,1.09,8.23,0.63,12.03-1.54c3.8-2.26,6.33-5.7,7.33-9.68c1.09-3.89,0.63-8.23-1.54-12.03
			C410.21,370.82,406.68,368.2,402.7,367.2"/>
		<path class="st2" d="M711.97,376.86c-0.07-0.01-0.14-0.02-0.21-0.02c-6.07,0-23.86,38.54-33.6,55.4
			c-1.74,3.02-3.23,5.36-4.35,6.64c-16.63,19.15-35.77,33.01-57.8,41.19c-2.25,0.83-4.53,1.61-6.84,2.33
			c-11.98,3.71-24.76,5.84-38.45,6.26c21.38-13.47,44.94-39.8,44.54-66.69c-0.02-1.07-0.72-1.55-1.98-1.55
			c-12.34,0-78.2,46.36-82.92,52.71c-4.71,6.35-8.73,13.19-12.12,20.36c-4.06,8.58-7.2,17.65-9.42,27.01
			c-1.8,7.55-3.02,15.27-3.65,23.07c-2.66,32.61,4.63,66.43,20.65,93.25c11.22-32.43,36.61-52.76,63.34-73.55
			c29.45-22.89,73.38-36.07,96.84-66.13C692.73,488.52,737.3,380.79,711.97,376.86"/>
		<path class="st3" d="M711.97,376.86c-0.07-0.01-0.14-0.02-0.21-0.02c-6.07,0-23.86,38.54-33.6,55.4
			c-1.74,3.02-3.23,5.36-4.35,6.64c-16.63,19.15-35.77,33.01-57.8,41.19c-2.25,0.83-4.53,1.61-6.84,2.33
			c-11.98,3.71-24.76,5.84-38.45,6.26c21.38-13.47,44.94-39.8,44.54-66.69c-0.02-1.07-0.72-1.55-1.98-1.55
			c-12.34,0-78.2,46.36-82.92,52.71c-4.71,6.35-8.73,13.19-12.12,20.36c-4.06,8.58-7.2,17.65-9.42,27.01
			c-1.8,7.55-3.02,15.27-3.65,23.07c-2.66,32.61,4.63,66.43,20.65,93.25c11.22-32.43,36.61-52.76,63.34-73.55
			c29.45-22.89,73.38-36.07,96.84-66.13C692.73,488.52,737.3,380.79,711.97,376.86z"/>
		<path class="st2" d="M491.17,520.5c-2.23-9.36-5.36-18.43-9.42-27.01c-3.39-7.17-7.41-14-12.13-20.36
			c-4.71-6.35-70.58-52.72-82.91-52.72c-1.27,0-1.97,0.49-1.98,1.55c-0.4,26.89,23.16,53.22,44.54,66.69
			c-13.68-0.42-26.47-2.55-38.45-6.26c-2.31-0.71-4.59-1.49-6.84-2.33c-22.03-8.18-41.17-22.03-57.8-41.19
			c-1.12-1.29-2.61-3.63-4.36-6.66c-9.74-16.87-27.52-55.38-33.59-55.38c-0.07,0-0.14,0.01-0.21,0.02
			c-25.33,3.93,19.23,111.66,25.96,120.28c23.46,30.06,67.39,43.24,96.84,66.13c26.73,20.78,52.13,41.11,63.34,73.55
			c16.02-26.82,23.32-60.64,20.65-93.25C494.19,535.77,492.97,528.04,491.17,520.5"/>
		<path class="st3" d="M491.17,520.5c-2.23-9.36-5.36-18.43-9.42-27.01c-3.39-7.17-7.41-14-12.13-20.36
			c-4.71-6.35-70.58-52.72-82.91-52.72c-1.27,0-1.97,0.49-1.98,1.55c-0.4,26.89,23.16,53.22,44.54,66.69
			c-13.68-0.42-26.47-2.55-38.45-6.26c-2.31-0.71-4.59-1.49-6.84-2.33c-22.03-8.18-41.17-22.03-57.8-41.19
			c-1.12-1.29-2.61-3.63-4.36-6.66c-9.74-16.87-27.52-55.38-33.59-55.38c-0.07,0-0.14,0.01-0.21,0.02
			c-25.33,3.93,19.23,111.66,25.96,120.28c23.46,30.06,67.39,43.24,96.84,66.13c26.73,20.78,52.13,41.11,63.34,73.55
			c16.02-26.82,23.32-60.64,20.65-93.25C494.19,535.77,492.97,528.04,491.17,520.5z"/>
		<path d="M235.76,795.17L235.76,795.17c0.02,0,0.04,0,0.06,0c0.01,0,0.01,0,0.01,0c0.01,0,0.01,0,0.02,0
			c6.53-0.01,12.2-0.76,17.02-2.27c4.84-1.51,8.87-3.76,12.08-6.74c3.63-3.3,6.37-7.4,8.21-12.29c1.84-4.89,2.76-10.64,2.76-17.25
			c0-4.93-0.4-9.85-1.19-14.74c-0.79-4.89-1.91-10.03-3.35-15.43H248.4c0.51,2.79,1.12,6.13,1.82,10.02
			c0.7,3.89,1.3,7.61,1.82,11.17c0.51,3.56,0.77,6.3,0.77,8.21c0,2.51-0.66,4.41-1.99,5.69c-1.33,1.28-3.1,2.14-5.31,2.58
			c-2.21,0.44-4.67,0.66-7.37,0.66c-4.42,0-7.67-0.44-9.74-1.33c-2.07-0.89-3.4-2.4-3.98-4.54c-0.58-2.14-0.87-5.12-0.87-8.94
			v-39.04h-23.12v7.32c-6.79,1.93-12.61,4.01-17.43,6.23c-6.17,2.84-11.02,5.9-14.56,9.18c-3.54,3.28-6.04,6.77-7.51,10.47
			c-1.47,3.7-2.2,7.62-2.2,11.77c0,5.12,1.07,9.73,3.21,13.83c2.14,4.1,5.37,7.33,9.67,9.71c4.31,2.38,9.72,3.56,16.24,3.56
			c4.19,0,8.21-0.83,12.05-2.48c1.28-0.55,2.51-1.19,3.71-1.9c1.33,3.31,3.07,6.04,5.23,8.18
			C214.45,792.39,223.42,795.17,235.76,795.17 M197.42,756.72c-2.65,0.77-5.52,1.15-8.59,1.15c-2.84,0-5.03-0.46-6.57-1.4
			c-1.54-0.93-2.3-2.19-2.3-3.77c0-1.63,0.72-3.12,2.16-4.47c1.44-1.35,3.4-2.59,5.87-3.74c2.47-1.14,5.28-2.23,8.45-3.28
			c1.3-0.43,2.64-0.86,3.98-1.28v15.69C199.47,756.04,198.47,756.42,197.42,756.72"/>
		<path d="M485.58,750.26c0,3.82-0.45,6.77-1.36,8.87c-0.91,2.09-2.41,3.56-4.51,4.4c-2.09,0.84-4.91,1.26-8.45,1.26
			c-4.38,0-8.86-0.04-13.45-0.1c-2.55-0.04-5.01-0.1-7.37-0.18c1.18-0.98,2.24-1.93,3.15-2.85c3.3-3.35,5.47-6.59,6.49-9.71
			c1.02-3.12,1.54-6.38,1.54-9.78c0-6.24-2.58-11.11-7.75-14.63c-5.17-3.52-12.8-5.27-22.91-5.27c-6.29,0-12.57,0.42-18.86,1.26
			c-6.29,0.84-12.85,2.14-19.7,3.91v23.61l12.68,13.21c-0.39,0.03-0.76,0.06-1.16,0.09c-2.33,0.16-5.03,0.28-8.1,0.35
			c-3.07,0.07-6.8,0.1-11.17,0.1h-1.47c-2.89,0-5.4-0.3-7.54-0.91c-2.14-0.6-3.79-1.83-4.96-3.67c-1.16-1.84-1.75-4.6-1.75-8.28
			V735.6h-23.12v16.34c0,3.68-0.58,6.44-1.75,8.28c-1.16,1.84-2.82,3.06-4.96,3.67c-2.14,0.61-4.68,0.91-7.61,0.91
			c-4.33,0-7.51-0.44-9.53-1.33c-2.03-0.89-3.33-2.4-3.91-4.54c-0.58-2.14-0.87-5.12-0.87-8.94v-65.37h-23.47v73.68
			c0,13.46,2.82,22.97,8.45,28.53c5.63,5.57,14.62,8.35,26.96,8.35c0,0,0,0,0,0c0.02,0,0.04,0,0.06,0c0.01,0,0.01,0,0.01,0
			c0.01,0,0.01,0,0.02,0c5.6-0.01,10.43-0.68,14.51-2.02c4.1-1.35,7.36-3.83,9.78-7.44c0.73-1.09,1.37-2.34,1.93-3.71
			c0.62,1.2,1.31,2.3,2.08,3.29c2.86,3.66,6.35,6.22,10.48,7.68c4.1,1.46,8.37,2.19,12.82,2.2v0h1.4c7.4,0,13.75-0.3,19.03-0.91
			c5.28-0.61,9.98-1.64,14.07-3.11c4-1.43,7.89-3.37,11.66-5.8c1.73,1.23,3.52,2.34,5.38,3.32c4.24,2.24,9.29,3.88,15.15,4.92
			c5.87,1.05,12.99,1.57,21.37,1.57c0.02,0,0.04,0,0.06,0c0,0,0.01,0,0.01,0c0,0,0.01,0,0.01,0c5.51-0.01,10.34-0.54,14.52-1.61
			c4.19-1.07,7.8-2.68,10.82-4.82c5.12-3.58,8.84-8.67,11.14-15.26c2.3-6.59,3.46-14.72,3.46-24.41v-64.46h-23.33V750.26z
			 M429.84,746.84c3.17,0,5.66,0.33,7.47,0.98c1.82,0.65,2.72,1.68,2.72,3.07c0,1.07-0.44,2.13-1.33,3.18
			c-0.89,1.05-2.31,2.23-4.26,3.56c-1.48,1-3.32,2.2-5.51,3.59l-14.89-13.24c1.62-0.25,3.29-0.47,5.03-0.65
			C422.25,747.01,425.84,746.84,429.84,746.84"/>
		<polygon points="527.83,795.17 536.77,795.17 551.3,795.17 551.3,684.61 527.83,684.61 		"/>
		<path d="M815.22,764.37c-3.26,0.05-6.47-0.16-9.64-0.63c-3.17-0.46-5.79-1.34-7.86-2.62c-2.07-1.28-3.11-3.11-3.11-5.48
			c0-2.24,0.78-4.13,2.34-5.69c1.56-1.56,3.71-2.76,6.46-3.6c2.75-0.84,5.84-1.26,9.29-1.26c3.21,0,6.6,0.31,10.16,0.91
			c3.56,0.61,6.67,1.33,9.32,2.17l0.7-23.75c-2.65-1.91-6.05-3.46-10.2-4.64c-4.14-1.19-8.45-1.78-12.92-1.78
			c-6.57,0-12.64,1.27-18.23,3.81c-5.59,2.54-10.07,6.17-13.44,10.89c-3.38,4.73-5.06,10.35-5.06,16.87c0,3.26,0.49,6.16,1.47,8.7
			s2.22,4.69,3.74,6.46c0.02,0.03,0.04,0.05,0.06,0.07h-4.01h-11.31c-2.89,0-5.4-0.3-7.54-0.91c-2.14-0.6-3.79-1.83-4.96-3.67
			c-1.16-1.84-1.75-4.6-1.75-8.28V735.6h-23.12v16.34c0,3.68-0.58,6.44-1.75,8.28c-1.16,1.84-2.82,3.06-4.96,3.67
			c-2.14,0.61-4.68,0.91-7.61,0.91h-11.06c-0.24-4.95-0.91-9.49-2.03-13.62c-1.47-5.4-3.54-9.99-6.22-13.76
			c-2.68-3.77-5.82-6.66-9.43-8.66c-3.61-2-7.51-3-11.7-3c-6.19,0-11.77,1.65-16.73,4.96c-4.96,3.31-8.87,7.73-11.73,13.27
			c-2.86,5.54-4.29,11.66-4.29,18.37c0,8.76,2.48,15.48,7.44,20.19c4.96,4.7,11.26,7.05,18.89,7.05h17.85
			c-0.06,0.23-0.11,0.47-0.18,0.7c-0.37,1.3-2.1,2.68-5.17,4.12c-3.07,1.44-7.11,2.65-12.12,3.63c-5.01,0.98-10.63,1.47-16.87,1.47
			c-10.57,0-18.25-1.93-23.05-5.8c-4.8-3.86-7.19-9.78-7.19-17.74c0-3.68,0.36-7.6,1.08-11.77c0.72-4.17,1.76-8.65,3.11-13.44
			h-21.65c-1.58,4.66-2.93,9.73-4.05,15.23c-1.12,5.49-1.68,10.87-1.68,16.13c0,13.92,4.16,24.94,12.47,33.07
			c8.31,8.12,20.45,12.19,36.42,12.19c9.54,0,17.8-1.05,24.76-3.14c6.96-2.09,12.77-5.31,17.43-9.64
			c5.14-4.87,8.92-11.35,11.37-19.42h11.95c0.02,0,0.04,0,0.06,0c0.01,0,0.01,0,0.01,0c0.01,0,0.01,0,0.02,0
			c5.6-0.01,10.43-0.68,14.51-2.02c4.1-1.35,7.36-3.83,9.78-7.44c0.73-1.09,1.37-2.34,1.93-3.71c0.62,1.2,1.31,2.3,2.08,3.29
			c2.86,3.66,6.35,6.22,10.48,7.68c4.1,1.46,8.37,2.19,12.82,2.2v0h13.65c4.4,0,8.74-0.01,13.03-0.04
			c4.28-0.02,8.54-0.03,12.78-0.03c6.66-0.05,13.47-0.35,20.43-0.91c6.96-0.56,13.89-1.37,20.78-2.44v-29.05
			c-4.42,0.47-8.78,0.85-13.06,1.15C823.93,764.15,819.6,764.33,815.22,764.37 M658.47,762.56c-1.47-0.88-2.2-2.05-2.2-3.49
			c0-1.3,0.45-2.63,1.36-3.98c0.91-1.35,2.15-2.48,3.74-3.39c1.58-0.91,3.38-1.36,5.38-1.36c1.58,0,3.1,0.33,4.54,0.98
			c1.44,0.65,2.77,1.58,3.98,2.79c1.21,1.21,2.28,2.67,3.21,4.36c0.9,1.64,1.62,3.45,2.17,5.41h-15.23
			C662.25,763.88,659.93,763.44,658.47,762.56"/>
		<path d="M661.47,689.37L661.47,689.37c-5.54-5.65-14.63-5.68-20.2-0.05h0c-5.45,5.51-5.47,14.39-0.03,19.91
			c5.57,5.66,14.71,5.64,20.25-0.05C666.86,703.67,666.85,694.87,661.47,689.37"/>
		<path d="M689.81,689.37L689.81,689.37c-5.54-5.65-14.63-5.68-20.2-0.05h0c-5.45,5.51-5.47,14.39-0.03,19.91
			c5.57,5.66,14.71,5.64,20.25-0.05C695.21,703.67,695.2,694.87,689.81,689.37"/>
		<path d="M198.93,680.05L198.93,680.05c-5.54-5.65-14.63-5.68-20.2-0.05h0c-5.46,5.51-5.47,14.39-0.03,19.91
			c5.57,5.66,14.71,5.64,20.25-0.05C204.33,694.34,204.32,685.55,198.93,680.05"/>
		<path d="M227.28,680.05L227.28,680.05c-5.54-5.65-14.63-5.68-20.2-0.05c-5.45,5.51-5.47,14.39-0.03,19.91
			c5.57,5.66,14.71,5.64,20.25-0.05C232.68,694.34,232.67,685.55,227.28,680.05"/>
		<path d="M233.57,805.79L233.57,805.79c-5.54-5.65-14.63-5.68-20.2-0.05c-5.45,5.51-5.47,14.39-0.03,19.91
			c5.57,5.66,14.71,5.64,20.25-0.05C238.97,820.08,238.95,811.29,233.57,805.79"/>
		<path d="M261.92,805.79L261.92,805.79c-5.54-5.65-14.63-5.68-20.2-0.05h0c-5.46,5.51-5.47,14.39-0.03,19.91
			c5.57,5.66,14.71,5.64,20.25-0.05C267.31,820.08,267.3,811.29,261.92,805.79"/>
		<path d="M363.94,695.86L363.94,695.86c-5.54-5.65-14.63-5.68-20.2-0.05h0c-5.46,5.51-5.47,14.39-0.03,19.91
			c5.57,5.66,14.71,5.64,20.25-0.05C369.34,710.15,369.32,701.36,363.94,695.86"/>
		<path d="M745.53,807.59L745.53,807.59c-5.54-5.65-14.63-5.68-20.2-0.05c-5.45,5.51-5.47,14.39-0.03,19.91
			c5.57,5.66,14.71,5.64,20.25-0.05C750.93,821.88,750.92,813.09,745.53,807.59"/>
		<polygon points="195.88,861.84 190.34,856.17 184.71,861.8 190.34,867.5 		"/>
		<path d="M233.47,872.44c-5.81-3.73-14.66-6.28-26.55-7.63l-1.72,9.64c1,0.14,1.96,0.29,2.9,0.44c-0.59,0.85-1.11,1.73-1.54,2.66
			c-0.74,1.61-1.11,3.19-1.11,4.76c0,1.83,0.39,3.53,1.14,5.13c-1.69,0.05-3.42,0.09-5.24,0.09c-1.38,0-2.55-0.15-3.52-0.44
			c-0.97-0.29-1.72-0.86-2.24-1.71c-0.52-0.84-0.78-2.08-0.78-3.71v-7.41h-8.98v7.41c0,1.63-0.26,2.86-0.78,3.71
			c-0.52,0.84-1.27,1.41-2.24,1.71c-0.97,0.29-2.15,0.44-3.55,0.44h-17.02c-0.01,0-0.01,0-0.01,0c-0.01,0-0.01,0-0.02,0H145.2
			c-0.01,0-0.01,0-0.02,0s-0.01,0-0.02,0h-17.02c-0.01,0-0.01,0-0.02,0c-0.01,0-0.01,0-0.02,0H111.1c-0.01,0-0.01,0-0.02,0
			c-0.01,0-0.01,0-0.02,0H94.04c-0.01,0-0.02,0-0.03,0c0,0,0,0,0,0v0c-1.94,0-3.37-0.2-4.3-0.59c-0.93-0.4-1.54-1.08-1.83-2.04
			c-0.29-0.96-0.44-2.28-0.44-3.97v-30.07h-9.1v33.29c0,5.51,1.16,9.41,3.49,11.7c2.33,2.29,6.06,3.44,11.22,3.44
			c0.01,0,0.02-0.01,0.03-0.01c0.01,0,0.02,0.01,0.03,0.01h16.99v-0.01c0.01,0,0.02,0.01,0.03,0.01c0.01,0,0.01,0,0.01,0
			c0.01,0,0.01,0,0.02,0h16.99l0-0.01c0.01,0,0.02,0.01,0.03,0.01c0.01,0,0.01,0,0.01,0c0.01,0,0.01,0,0.02,0h16.99v-0.01
			c0.01,0,0.02,0.01,0.03,0.01c0.01,0,0.01,0,0.01,0c0.01,0,0.01,0,0.02,0h16.99l0-0.01c0.01,0,0.02,0.01,0.03,0.01
			c0.01,0,0.01,0,0.02,0c0.01,0,0.01,0,0.02,0h16.99c0.01,0,0.02,0,0.03,0c0,0,0,0,0.01,0c0,0,0,0,0.01,0c2.4,0,4.47-0.28,6.19-0.84
			c1.73-0.56,3.11-1.58,4.13-3.07c0.35-0.51,0.65-1.1,0.91-1.75c0.29,0.58,0.6,1.13,0.98,1.6c1.2,1.5,2.66,2.55,4.38,3.16
			c1.71,0.6,3.53,0.9,5.46,0.91v0c0.01,0,0.02,0,0.03,0c0,0,0,0,0.01,0c0,0,0,0,0,0c4.01,0,7.29-0.23,9.84-0.69
			c2.46-0.44,4.5-1.06,6.13-1.85c0.55,0.27,1.1,0.54,1.68,0.78c2.88,1.18,6.17,1.77,9.89,1.77c4.48,0,7.98-1.16,10.48-3.47
			c2.5-2.32,3.75-5.57,3.75-9.76C242.18,880.71,239.28,876.18,233.47,872.44 M215.62,886.25c-1.17-0.59-2.11-1.26-2.82-2
			c-0.71-0.74-1.06-1.54-1.06-2.39c0-0.69,0.24-1.38,0.74-2.06c0.49-0.69,1.12-1.27,1.88-1.74c0.76-0.47,1.54-0.7,2.33-0.7
			c0.92,0,1.75,0.26,2.49,0.78c0.74,0.52,1.33,1.16,1.77,1.91c0.44,0.75,0.66,1.48,0.66,2.19c0,0.71-0.26,1.39-0.77,2.05
			c-0.51,0.66-1.25,1.21-2.22,1.66c-0.62,0.29-1.35,0.51-2.16,0.69C216.17,886.5,215.88,886.39,215.62,886.25 M232.47,888.37
			c-0.72,0.5-1.76,0.75-3.11,0.75c-0.99,0-2.27-0.11-3.79-0.32c0.26-0.39,0.52-0.78,0.74-1.18c1.18-2.13,1.77-4.56,1.79-7.28
			c0.95,0.48,1.77,0.98,2.46,1.49c1.99,1.48,2.99,3.03,2.99,4.63C233.55,887.23,233.19,887.87,232.47,888.37"/>
		<polygon points="286.02,868.87 280.48,863.21 274.85,868.84 280.48,874.54 		"/>
		<path d="M401.92,872.63c-1.8-1.38-3.85-2.07-6.15-2.07c-2.61,0-4.87,0.76-6.79,2.27s-3.6,3.55-5.04,6.12l-1.56,2.75
			c-0.75,1.34-1.42,2.44-2,3.3c-0.58,0.87-1.26,1.5-2.02,1.91c-0.76,0.41-1.8,0.61-3.11,0.61h-17.02c-0.01,0-0.01,0-0.02,0
			s-0.01,0-0.02,0h-17.02c-0.01,0-0.01,0-0.02,0c-0.01,0-0.01,0-0.02,0h-17.02c-0.01,0-0.01,0-0.02,0s-0.01,0-0.02,0h-17.02
			c-0.01,0-0.01,0-0.02,0c-0.01,0-0.01,0-0.02,0c-1.98,0-3.49-0.17-4.54-0.52c-1.04-0.34-1.8-1-2.27-1.97
			c-0.47-0.97-0.87-2.39-1.21-4.27l-0.44-2.32h-9.39c0.44,2.5,0.8,4.7,1.08,6.59c0.28,1.89,0.49,3.56,0.63,5.01
			c0.14,1.45,0.2,2.8,0.2,4.05c0,1.79-0.47,3.27-1.42,4.44c-0.95,1.17-2.23,2.03-3.83,2.58c-1.61,0.55-3.41,0.83-5.41,0.83
			c-3.82,0-6.62-0.79-8.4-2.36c-1.78-1.58-2.67-3.98-2.67-7.21c0-1.56,0.16-3.3,0.49-5.21c0.32-1.91,0.74-3.84,1.27-5.8h-8.29
			c-0.71,2-1.3,4.2-1.77,6.6c-0.47,2.4-0.7,4.67-0.7,6.82c0,3.84,0.77,7.15,2.3,9.93c1.53,2.78,3.72,4.93,6.57,6.44
			c2.85,1.51,6.27,2.27,10.28,2.27c4.27,0,7.9-0.74,10.89-2.22c2.98-1.48,5.26-3.72,6.82-6.71c1.02-1.95,1.7-4.23,2.05-6.84
			c0.04,0.03,0.08,0.05,0.12,0.08c1.76,1.03,4,1.55,6.71,1.55c0,0,0.01,0,0.01,0c0.01,0,0.01,0,0.02,0h16.99l0,0
			c0.01,0,0.02,0,0.03,0c0.01,0,0.01,0,0.01,0c0.01,0,0.01,0,0.02,0h16.99v0c0.01,0,0.02,0,0.03,0c0.01,0,0.01,0,0.01,0
			c0.01,0,0.01,0,0.02,0h16.99l0,0c0.01,0,0.02,0,0.03,0c0.01,0,0.01,0,0.02,0s0.01,0,0.02,0h16.99c0.01,0,0.02,0,0.02,0
			c0,0,0,0,0.01,0c0,0,0.01,0,0.01,0c2.29,0,4.12-0.35,5.48-1.05c1.3-0.66,2.4-1.69,3.32-3.05c0.48,0.42,0.99,0.82,1.54,1.19
			c1.46,0.96,3.06,1.68,4.79,2.17c1.73,0.49,3.48,0.73,5.26,0.73c2.82,0,5.19-0.58,7.12-1.75c1.93-1.17,3.4-2.81,4.4-4.93
			c1-2.12,1.5-4.58,1.5-7.4c0-2.57-0.52-4.96-1.55-7.18C405.14,875.8,403.72,874.01,401.92,872.63 M398.37,887.66
			c-0.58,0.51-1.52,0.77-2.82,0.77c-1.23,0-2.51-0.18-3.83-0.53c-1.28-0.34-2.52-0.83-3.71-1.46c0.87-1.69,1.73-3.05,2.59-4.04
			c1.05-1.23,2.42-1.85,4.11-1.85c0.92,0,1.72,0.24,2.39,0.72c0.68,0.48,1.21,1.09,1.58,1.84s0.56,1.5,0.56,2.25
			C399.24,886.38,398.95,887.15,398.37,887.66"/>
		<polygon points="427.24,899.28 430.69,899.28 436.35,899.28 436.35,860.71 427.24,860.71 		"/>
		<path d="M432.62,851.57c-1.13,0-1.99-0.12-2.58-0.38c-0.59-0.25-0.89-0.66-0.89-1.22c0-0.73,0.41-1.28,1.22-1.66
			c0.81-0.38,1.7-0.56,2.66-0.56c0.6,0,1.24,0.06,1.89,0.17c0.66,0.12,1.31,0.28,1.95,0.49v-4.44c-0.58-0.33-1.25-0.58-2-0.75
			c-0.75-0.17-1.45-0.25-2.1-0.25c-2.27,0-4.13,0.61-5.57,1.83c-1.44,1.22-2.16,2.79-2.16,4.71c0,1.21,0.29,2.22,0.86,3.03
			c0.35,0.49,0.71,0.86,1.09,1.11l-3.23,0.67v4.32l15.58-3.76v-4.32c-1.38,0.27-2.63,0.51-3.76,0.7
			C434.47,851.47,433.48,851.57,432.62,851.57"/>
		<polygon points="590.37,907.58 596,913.27 601.54,907.61 596,901.94 		"/>
		<path d="M594.31,895.37c0.35-0.51,0.65-1.1,0.91-1.75c0.29,0.58,0.6,1.13,0.98,1.6c1.2,1.5,2.66,2.55,4.38,3.16
			c1.71,0.6,3.53,0.9,5.46,0.91l0,0c0.01,0,0.01,0,0.02,0c0,0,0.01,0,0.01,0c0,0,0,0,0.01,0c2.7,0,5.04-0.31,7.05-0.92
			c2.01-0.61,3.68-1.54,4.99-2.77c1.5-1.34,2.63-3.01,3.39-5.04c0.76-2.02,1.14-4.4,1.14-7.13c0-2.13-0.17-4.26-0.52-6.4
			c-0.34-2.14-0.84-4.43-1.49-6.87h-9.04c0.27,1.33,0.57,2.86,0.89,4.57c0.32,1.71,0.59,3.34,0.81,4.9
			c0.22,1.55,0.33,2.77,0.33,3.65c0,1.17-0.29,2.06-0.88,2.67c-0.58,0.62-1.38,1.03-2.38,1.25c-1,0.22-2.13,0.33-3.38,0.33
			c-1.38,0-2.55-0.15-3.52-0.44c-0.97-0.29-1.72-0.86-2.24-1.7c-0.52-0.85-0.78-2.08-0.78-3.71v-7.42h-8.98v7.42
			c0,1.63-0.26,2.86-0.78,3.71c-0.52,0.84-1.27,1.41-2.24,1.7c-0.97,0.29-2.15,0.44-3.55,0.44h-17.02c-0.01,0-0.01,0-0.01,0
			c-0.01,0-0.01,0-0.02,0h-17.02c-0.01,0-0.01,0-0.01,0c-0.01,0-0.01,0-0.02,0H533.8c0,0-0.01,0-0.01,0c-0.01,0-0.01,0-0.02,0
			h-17.02c-0.01,0-0.01,0-0.01,0c-0.01,0-0.01,0-0.02,0H499.7c-0.01,0-0.01,0-0.01,0c-0.01,0-0.01,0-0.02,0h-17.02
			c-0.01,0-0.01,0-0.01,0c-0.01,0-0.01,0-0.02,0c-1.27,0-2.32-0.12-3.13-0.36c-0.81-0.24-1.5-0.68-2.07-1.31
			c-0.56-0.64-1.07-1.56-1.53-2.77c-0.46-1.21-0.97-2.77-1.53-4.69l-4.16-13.98h-9.48l5.26,18.27c0.17,0.54,0.28,1,0.33,1.38
			c0.05,0.38,0.08,0.68,0.08,0.91c0,0.92-0.47,1.62-1.42,2.1c-0.95,0.48-2.59,0.72-4.93,0.72h-2.13c-2.36,0-4.01-0.31-4.96-0.92
			c-0.95-0.61-1.42-1.64-1.42-3.08c0-0.35,0.01-0.71,0.03-1.07c0.02-0.35,0.04-0.62,0.06-0.81h-7.32c-0.23,0.9-0.41,1.84-0.55,2.83
			c-0.14,0.99-0.2,2.07-0.2,3.24c0,3.77,1.21,6.65,3.63,8.62c2.42,1.97,5.88,2.96,10.39,2.96h2c2.88,0,5.25-0.48,7.12-1.44
			c1.87-0.96,3.24-2.34,4.13-4.13c0.02-0.04,0.03-0.08,0.05-0.12c0.06,0.09,0.11,0.19,0.17,0.28c1.24,1.92,2.75,3.26,4.52,4.02
			c1.77,0.76,3.81,1.14,6.1,1.14v0c0.01,0,0.02,0,0.03,0c0.01,0,0.01,0,0.02,0c0.01,0,0.01,0,0.02,0h16.99l0,0c0.01,0,0.02,0,0.03,0
			c0.01,0,0.01,0,0.02,0c0.01,0,0.01,0,0.02,0h16.99v0c0.01,0,0.02,0,0.03,0c0.01,0,0.01,0,0.02,0c0.01,0,0.01,0,0.02,0h16.99l0,0
			c0.01,0,0.02,0,0.03,0c0.01,0,0.01,0,0.02,0c0.01,0,0.01,0,0.02,0h16.99v0c0.01,0,0.02,0,0.03,0c0.01,0,0.01,0,0.01,0
			c0.01,0,0.01,0,0.02,0h16.99l0,0c0.01,0,0.02,0,0.03,0c0,0,0.01,0,0.01,0c0.01,0,0.01,0,0.02,0h16.99v0c0,0,0,0,0,0v0
			c0.01,0,0.02,0,0.03,0c0,0,0,0,0.01,0c0,0,0,0,0,0c0,0,0,0,0.01,0c2.4,0,4.46-0.28,6.19-0.84
			C591.91,897.88,593.29,896.85,594.31,895.37"/>
		<polygon points="604.48,907.51 609.52,912.64 614.62,907.51 609.52,902.38 		"/>
		<polygon points="614.62,907.51 619.65,912.64 624.72,907.51 619.65,902.38 		"/>
		<path d="M664.74,878.79c1.06,0,2.07-0.09,3.02-0.28c0.95-0.19,1.77-0.48,2.46-0.88c0.77-0.46,1.38-1.06,1.83-1.8
			c0.45-0.74,0.67-1.64,0.67-2.71c0-1.71-0.69-3.12-2.08-4.22c-1.08-0.86-2.76-1.46-5.04-1.82l6.56-2.84v-4.79l-11.23,5.76v5.32
			c2.69,0.4,4.67,0.79,5.94,1.19s1.91,0.83,1.91,1.31c0,0.36-0.4,0.62-1.19,0.8c-0.79,0.18-1.75,0.27-2.88,0.27
			c-0.86,0-1.7-0.05-2.53-0.14c-0.83-0.09-1.56-0.2-2.19-0.33v4.66c0.73,0.15,1.49,0.27,2.28,0.36
			C663.06,878.75,663.88,878.79,664.74,878.79"/>
		<path d="M702.38,880.83c0,1.77-0.21,3.15-0.63,4.11c-0.42,0.97-1.1,1.64-2.06,2.02c-0.96,0.38-2.25,0.56-3.88,0.56
			c-1.42,0-2.62-0.15-3.6-0.44c-0.98-0.29-1.72-0.89-2.21-1.8c-0.49-0.91-0.73-2.26-0.73-4.05v-30.38h-9.07v29.97
			c0,1.79-0.36,3.18-1.08,4.16c-0.72,0.98-1.86,1.65-3.41,2c-1.55,0.35-3.59,0.53-6.12,0.53h-5.32c-3.42,0-6.14-0.29-8.17-0.86
			c-2.02-0.57-3.48-1.52-4.36-2.83c-0.89-1.32-1.33-3.08-1.33-5.29c0-1.17,0.14-2.51,0.41-4.04c0.27-1.52,0.71-3.23,1.31-5.13h-7.79
			c-0.88,2.13-1.54,4.28-2,6.46s-0.69,4.29-0.69,6.34c0,5.78,1.65,10.07,4.94,12.89c3.3,2.82,8.7,4.22,16.21,4.22h6.01
			c3.09,0,5.84-0.33,8.28-0.98c2.43-0.66,4.36-1.76,5.79-3.3c0.46-0.49,0.84-1.05,1.16-1.66c0.32,0.72,0.69,1.36,1.13,1.91
			c1.18,1.5,2.62,2.55,4.33,3.14c1.7,0.59,3.48,0.89,5.35,0.89v0c0.01,0,0.01,0,0.02,0c0,0,0.01,0,0.01,0c0,0,0,0,0.01,0
			c2.36,0,4.42-0.23,6.17-0.67c1.76-0.45,3.27-1.13,4.52-2.05c2.07-1.46,3.56-3.53,4.47-6.22c0.92-2.69,1.38-6.01,1.38-9.95v-29.53
			h-9.04V880.83z"/>
		<polygon points="900.45,904.38 906.08,910.08 911.62,904.42 906.08,898.75 		"/>
		<path d="M917.94,875.69c-2.34,0-4.44-0.23-6.32-0.69c-1.88-0.46-3.67-1.02-5.37-1.69c-1.7-0.67-3.4-1.33-5.1-1.99
			c-1.7-0.66-3.52-1.21-5.44-1.67c-1.93-0.46-4.08-0.69-6.46-0.69c-1.65,0-3.17,0.12-4.57,0.36c-1.4,0.24-2.65,0.57-3.75,0.98v9.23
			c0.98-0.25,2.03-0.45,3.14-0.59c1.12-0.15,2.26-0.22,3.43-0.22c2.42,0,4.49,0.18,6.23,0.53c1.73,0.36,3.28,0.8,4.65,1.33
			c1.37,0.53,2.71,1.06,4.04,1.59c0.63,0.25,1.3,0.49,2.01,0.7c-0.78,0.3-1.63,0.62-2.57,0.97c-0.95,0.35-2.16,0.76-3.65,1.22
			c-1.92,0.59-3.92,1.06-6.01,1.42c-2.09,0.36-4.34,0.63-6.76,0.78c-2.41,0.16-5.08,0.23-8.01,0.23c-1.48,0-2.63-0.24-3.45-0.73
			c-0.82-0.49-1.5-1.24-2.03-2.25c-0.53-1.01-1.1-2.3-1.71-3.86c-0.73-1.88-1.61-3.59-2.63-5.13c-1.02-1.54-2.25-2.77-3.68-3.69
			c-1.43-0.92-3.11-1.38-5.05-1.38c-2.69,0-4.93,0.72-6.73,2.16c-1.79,1.44-3.41,3.38-4.85,5.82l-1.6,2.75
			c-0.88,1.46-1.63,2.65-2.27,3.58c-0.64,0.93-1.34,1.62-2.11,2.06c-0.77,0.45-1.79,0.67-3.07,0.67h-17.02c-0.01,0-0.01,0-0.01,0
			c-0.01,0-0.01,0-0.02,0h-17.02c-0.01,0-0.01,0-0.02,0s-0.01,0-0.02,0h-17.02c-0.01,0-0.01,0-0.02,0s-0.01,0-0.02,0h-17.02
			c-0.01,0-0.01,0-0.02,0s-0.01,0-0.02,0h-17.02c-0.01,0-0.01,0-0.02,0c-0.01,0-0.01,0-0.02,0h-17.02c-0.01,0-0.02,0.01-0.03,0.01
			c0,0,0,0,0,0v-0.01c-1.94,0-3.37-0.2-4.3-0.59c-0.93-0.4-1.54-1.08-1.83-2.04c-0.29-0.96-0.44-2.28-0.44-3.97v-30.07h-9.1v33.29
			c0,5.51,1.16,9.41,3.49,11.7c2.32,2.29,6.06,3.44,11.22,3.44c0.01,0,0.02-0.01,0.03-0.01c0.01,0,0.02,0.01,0.03,0.01h16.99v-0.01
			c0.01,0,0.02,0.01,0.03,0.01c0.01,0,0.01,0,0.02,0s0.01,0,0.02,0h16.99v-0.01c0.01,0,0.02,0.01,0.03,0.01c0.01,0,0.01,0,0.02,0
			c0.01,0,0.01,0,0.02,0h16.99v-0.01c0.01,0,0.02,0.01,0.03,0.01c0.01,0,0.01,0,0.01,0c0.01,0,0.01,0,0.02,0h16.99v-0.01
			c0.01,0,0.02,0.01,0.03,0.01c0.01,0,0.01,0,0.02,0c0.01,0,0.01,0,0.02,0h16.99v-0.01c0.01,0,0.02,0.01,0.03,0.01
			c0.01,0,0.01,0,0.02,0s0.01,0,0.02,0h16.99c0.01,0,0.02,0,0.03,0c0,0,0,0,0.01,0c0,0,0.01,0,0.01,0c2.15,0,3.9-0.33,5.25-0.97
			c1.35-0.64,2.51-1.68,3.5-3.1c0.47,0.42,0.96,0.82,1.51,1.18c1.44,0.95,3.01,1.67,4.72,2.16c1.71,0.49,3.43,0.73,5.16,0.73
			c2.36,0,4.36-0.42,6.02-1.25c1.57-0.79,2.78-1.89,3.64-3.29c0.01,0.02,0.02,0.04,0.03,0.07c0.77,1.36,1.91,2.44,3.41,3.25
			c1.5,0.81,3.46,1.22,5.88,1.22c0.01,0,0.02,0,0.03,0c0,0,0,0,0,0s0,0,0,0c3.84,0,7.27-0.22,10.29-0.67
			c3.02-0.45,5.81-1.16,8.37-2.13c2.55-0.97,5.06-2.24,7.52-3.8c2.84-1.81,5.16-3.16,6.96-4.05c1.8-0.89,3.36-1.47,4.68-1.75
			c1.31-0.28,2.63-0.42,3.94-0.42h3.41v-10.76H917.94z M862.34,886.99c-0.27,0.5-0.7,0.88-1.3,1.13c-0.59,0.25-1.36,0.38-2.3,0.38
			c-1.36,0-2.71-0.19-4.05-0.58c-1.24-0.36-2.42-0.84-3.56-1.43c0.79-1.43,1.65-2.72,2.57-3.88c1.17-1.46,2.59-2.19,4.26-2.19
			c0.98,0,1.81,0.23,2.49,0.7c0.68,0.47,1.2,1.06,1.58,1.78c0.37,0.72,0.58,1.45,0.62,2.2
			C862.72,885.86,862.61,886.49,862.34,886.99"/>
	</g>
</g>
<g id="Layer_4">
</g>
<g id="Layer_5">
</g>
</svg>
